<svg fill="none" height="100%" width="100%" viewBox="0 0 1600 1300" xmlns:xlink="http://www.w3.org/1999/xlink" xmlns="http://www.w3.org/2000/svg"><defs><linearGradient id="i0" gradientUnits="userSpaceOnUse" spreadMethod="pad" x2="100" y2="0" x1="0" y1="0"><stop offset="0%" stop-color="#ffffff" /><stop offset="100%" stop-color="#000000" /></linearGradient><filter id="i1"><feColorMatrix values="0 0 0 0 1 0 0 0 0 1 0 0 0 0 1 0 0 0 1 0" type="matrix" /></filter><mask height="20000" width="20000" y="-10000" x="-10000" maskContentUnits="userSpaceOnUse" maskUnits="userSpaceOnUse" style="mask-type: alpha" mask-type="alpha" id="i2"><g filter="url(#i1)" transform="matrix(1.151,0,0,1.151,703.659,572.634)" style="mix-blend-mode: hard-light"><g id="i3" transform="matrix(1,0,0,1,63.278,83.408)"><path fill="#ffffff" fill-rule="evenodd" d="M8.293,80.437C8.293,80.437,8.293,41.996,8.293,41.996C8.293,41.996,-63.028,41.996,-63.028,41.996C-63.028,41.996,-63.028,17.584,-63.028,17.584C-63.028,17.584,-2.248,-80.437,-2.248,-80.437C-2.248,-80.437,43.818,-80.437,43.818,-80.437C43.818,-80.437,43.818,13.847,43.818,13.847C43.818,13.847,63.028,13.847,63.028,13.847C63.028,13.847,63.028,41.996,63.028,41.996C63.028,41.996,43.818,41.996,43.818,41.996C43.818,41.996,43.818,80.437,43.818,80.437C43.818,80.437,8.293,80.437,8.293,80.437ZM8.293,13.847C8.293,13.847,8.293,-21.723,8.293,-21.723C8.293,-31.383,8.807,-41.345,9.364,-51.708C9.364,-51.708,8.462,-51.747,8.462,-51.747C3.316,-41.249,-1.017,-31.95,-6.464,-21.888C-6.464,-21.888,-27.903,13.353,-27.903,13.353C-27.903,13.353,-28.05,13.847,-28.05,13.847C-28.05,13.847,8.293,13.847,8.293,13.847Z" /></g><g id="i4" transform="matrix(1,0,0,1,200.54,83.409)"><path fill="#ffffff" fill-rule="evenodd" d="M60.633,-0.666C60.633,48.9,40.516,83.159,-0.491,83.159C-42.105,83.159,-60.477,45.859,-60.633,0.351C-60.633,-46.386,-41.019,-83.159,0.587,-83.159C43.599,-83.159,60.633,-44.776,60.633,-0.666ZM-22.972,0.196C-23.07,37.224,-14.119,54.743,0.275,54.743C14.93,54.743,22.971,36.363,22.971,-0.197C22.971,-35.857,15.184,-54.597,0.195,-54.597C-13.648,-54.597,-23.021,-37.245,-22.972,0.196Z" /></g><g id="i5" transform="matrix(1,0,0,1,338.002,83.408)"><path fill="#ffffff" fill-rule="evenodd" d="M8.293,80.437C8.293,80.437,8.293,41.996,8.293,41.996C8.293,41.996,-63.028,41.996,-63.028,41.996C-63.028,41.996,-63.028,17.584,-63.028,17.584C-63.028,17.584,-2.248,-80.437,-2.248,-80.437C-2.248,-80.437,43.818,-80.437,43.818,-80.437C43.818,-80.437,43.818,13.847,43.818,13.847C43.818,13.847,63.028,13.847,63.028,13.847C63.028,13.847,63.028,41.996,63.028,41.996C63.028,41.996,43.818,41.996,43.818,41.996C43.818,41.996,43.818,80.437,43.818,80.437C43.818,80.437,8.293,80.437,8.293,80.437ZM8.293,13.847C8.293,13.847,8.293,-21.723,8.293,-21.723C8.293,-31.383,8.807,-41.345,9.364,-51.708C9.364,-51.708,8.462,-51.747,8.462,-51.747C3.316,-41.249,-1.017,-31.95,-6.464,-21.888C-6.464,-21.888,-27.903,13.353,-27.903,13.353C-27.903,13.353,-28.05,13.847,-28.05,13.847C-28.05,13.847,8.293,13.847,8.293,13.847Z" /></g></g></mask></defs><g style="isolation: isolate"><g transform="matrix(1.151,0,0,1.151,455.387,681.116)" id="i6"><g id="i5" transform="matrix(1,0,0,1,86.925,40.84)"><path stroke-miterlimit="10" stroke-width="5" stroke="#413f56" d="M17.745,-28.34C17.745,-28.34,-17.746,-28.34,-17.746,-28.34C-49.049,-28.34,-74.426,-2.964,-74.426,28.34C-74.426,28.34,74.426,28.34,74.426,28.34C74.426,-2.964,49.049,-28.34,17.745,-28.34Z" /></g></g><g transform="matrix(1.151,0,0,1.151,552.399,369.02)" id="i7"><g id="i5"><path stroke-miterlimit="10" stroke-width="5" stroke="#413f56" d="M2.62,282.82C2.62,282.82,2.5,2.5,2.5,2.5" /></g></g><g transform="matrix(1.151,0,0,1.151,537.687,446.432)" id="i6"><g id="i5" transform="matrix(1,0,0,1,15.952,15.952)"><path fill="#413f56" d="M15.702,0C15.702,8.672,8.672,15.702,0,15.702C-8.672,15.702,-15.702,8.672,-15.702,0C-15.702,-8.672,-8.672,-15.702,0,-15.702C8.672,-15.702,15.702,-8.672,15.702,0Z" /></g></g><g id="i7"><g transform="translate(556.97,465.702)"><g transform="rotate(0)"><animateTransform repeatCount="indefinite" type="rotate" attributeName="transform" dur="2.125s" begin="0s" calcMode="spline" values="0; -5; 0; 0" keyTimes="0; 0.470588; 0.941176; 1" keySplines="0.333 0 0.496 1; 0.5 0 0.667 1; 0 0 1 1" fill="freeze" /><g transform="scale(1.151,1.151) translate(-97.592,-157.757)"><g id="i5" transform="matrix(1,0,0,1,125.553,129.01)"><path stroke-miterlimit="10" stroke-width="5" stroke="#413f56" d="M123.053,-126.51C123.053,-126.51,-123.053,126.51,-123.053,126.51" /></g></g></g></g></g><g transform="matrix(1.151,0,0,1.151,408.927,759.102)" id="i8"><g id="i5"><path stroke-miterlimit="10" stroke-width="5" stroke="#413f56" d="M2.5,2.5C2.5,2.5,656.628,2.5,656.628,2.5" /></g></g><g transform="matrix(1.151,0,0,1.151,703.659,572.634)" id="i9"><g id="i3" transform="matrix(1,0,0,1,63.278,83.408)"><path fill="#413f56" fill-rule="evenodd" d="M8.293,80.437C8.293,80.437,8.293,41.996,8.293,41.996C8.293,41.996,-63.028,41.996,-63.028,41.996C-63.028,41.996,-63.028,17.584,-63.028,17.584C-63.028,17.584,-2.248,-80.437,-2.248,-80.437C-2.248,-80.437,43.818,-80.437,43.818,-80.437C43.818,-80.437,43.818,13.847,43.818,13.847C43.818,13.847,63.028,13.847,63.028,13.847C63.028,13.847,63.028,41.996,63.028,41.996C63.028,41.996,43.818,41.996,43.818,41.996C43.818,41.996,43.818,80.437,43.818,80.437C43.818,80.437,8.293,80.437,8.293,80.437ZM8.293,13.847C8.293,13.847,8.293,-21.723,8.293,-21.723C8.293,-31.383,8.807,-41.345,9.364,-51.708C9.364,-51.708,8.462,-51.747,8.462,-51.747C3.316,-41.249,-1.017,-31.95,-6.464,-21.888C-6.464,-21.888,-27.903,13.353,-27.903,13.353C-27.903,13.353,-28.05,13.847,-28.05,13.847C-28.05,13.847,8.293,13.847,8.293,13.847Z" /></g><g id="i4" transform="matrix(1,0,0,1,200.54,83.409)"><path fill="#413f56" fill-rule="evenodd" d="M60.633,-0.666C60.633,48.9,40.516,83.159,-0.491,83.159C-42.105,83.159,-60.477,45.859,-60.633,0.351C-60.633,-46.386,-41.019,-83.159,0.587,-83.159C43.599,-83.159,60.633,-44.776,60.633,-0.666ZM-22.972,0.196C-23.07,37.224,-14.119,54.743,0.275,54.743C14.93,54.743,22.971,36.363,22.971,-0.197C22.971,-35.857,15.184,-54.597,0.195,-54.597C-13.648,-54.597,-23.021,-37.245,-22.972,0.196Z" /></g><g id="i5" transform="matrix(1,0,0,1,338.002,83.408)"><path fill="#413f56" fill-rule="evenodd" d="M8.293,80.437C8.293,80.437,8.293,41.996,8.293,41.996C8.293,41.996,-63.028,41.996,-63.028,41.996C-63.028,41.996,-63.028,17.584,-63.028,17.584C-63.028,17.584,-2.248,-80.437,-2.248,-80.437C-2.248,-80.437,43.818,-80.437,43.818,-80.437C43.818,-80.437,43.818,13.847,43.818,13.847C43.818,13.847,63.028,13.847,63.028,13.847C63.028,13.847,63.028,41.996,63.028,41.996C63.028,41.996,43.818,41.996,43.818,41.996C43.818,41.996,43.818,80.437,43.818,80.437C43.818,80.437,8.293,80.437,8.293,80.437ZM8.293,13.847C8.293,13.847,8.293,-21.723,8.293,-21.723C8.293,-31.383,8.807,-41.345,9.364,-51.708C9.364,-51.708,8.462,-51.747,8.462,-51.747C3.316,-41.249,-1.017,-31.95,-6.464,-21.888C-6.464,-21.888,-27.903,13.353,-27.903,13.353C-27.903,13.353,-28.05,13.847,-28.05,13.847C-28.05,13.847,8.293,13.847,8.293,13.847Z" /></g></g><g id="i7"><g transform="translate(556.97,465.702)"><g transform="rotate(0)"><animateTransform repeatCount="indefinite" type="rotate" attributeName="transform" dur="2.125s" begin="0s" calcMode="spline" values="0; -5; 0; 0" keyTimes="0; 0.470588; 0.941176; 1" keySplines="0.333 0 0.496 1; 0.5 0 0.667 1; 0 0 1 1" fill="freeze" /><g transform="scale(1.151,1.151) translate(-97.592,-157.757)"><g id="i6"><g transform="translate(207.535,45.022)"><g transform="rotate(0)"><animateTransform repeatCount="indefinite" type="rotate" attributeName="transform" dur="2.125s" begin="0s" calcMode="spline" values="0; 0; -55; 0; 0" keyTimes="0; 0.019608; 0.490196; 0.960784; 1" keySplines="0 0 1 1; 0.333 0 0.397 1; 0.604 0 0.667 1; 0 0 1 1" fill="freeze" /><g transform="scale(1,1) translate(-15.952,-15.952)"><g id="i5" transform="matrix(1,0,0,1,15.952,15.952)"><path fill="#413f56" d="M15.702,0C15.702,8.672,8.672,15.702,0,15.702C-8.672,15.702,-15.702,8.672,-15.702,0C-15.702,-8.672,-8.672,-15.702,0,-15.702C8.672,-15.702,15.702,-8.672,15.702,0Z" /></g></g></g></g></g></g></g></g></g><g id="i7"><g transform="translate(556.97,465.702)"><g transform="rotate(0)"><animateTransform repeatCount="indefinite" type="rotate" attributeName="transform" dur="2.125s" begin="0s" calcMode="spline" values="0; -5; 0; 0" keyTimes="0; 0.470588; 0.941176; 1" keySplines="0.333 0 0.496 1; 0.5 0 0.667 1; 0 0 1 1" fill="freeze" /><g transform="scale(1.151,1.151) translate(-97.592,-157.757)"><g id="i6"><g transform="translate(207.535,45.022)"><g transform="rotate(0)"><animateTransform repeatCount="indefinite" type="rotate" attributeName="transform" dur="2.125s" begin="0s" calcMode="spline" values="0; 0; -55; 0; 0" keyTimes="0; 0.019608; 0.490196; 0.960784; 1" keySplines="0 0 1 1; 0.333 0 0.397 1; 0.604 0 0.667 1; 0 0 1 1" fill="freeze" /><g transform="scale(1,1) translate(-15.952,-15.952)"><g transform="matrix(1,0,0,1,8.377,7.129)" id="i10"><g id="i5" transform="matrix(1,0,0,1,4.991,27.363)"><path stroke-miterlimit="10" stroke-width="5" stroke="#413f56" d="M-2.491,24.863C-2.491,24.863,2.491,-24.863,2.491,-24.863" /></g></g></g></g></g></g></g></g></g></g><g id="i7"><g transform="translate(556.97,465.702)"><g transform="rotate(0)"><animateTransform repeatCount="indefinite" type="rotate" attributeName="transform" dur="2.125s" begin="0s" calcMode="spline" values="0; -5; 0; 0" keyTimes="0; 0.470588; 0.941176; 1" keySplines="0.333 0 0.496 1; 0.5 0 0.667 1; 0 0 1 1" fill="freeze" /><g transform="scale(1.151,1.151) translate(-97.592,-157.757)"><g id="i6"><g transform="translate(207.535,45.022)"><g transform="rotate(0)"><animateTransform repeatCount="indefinite" type="rotate" attributeName="transform" dur="2.125s" begin="0s" calcMode="spline" values="0; 0; -55; 0; 0" keyTimes="0; 0.019608; 0.490196; 0.960784; 1" keySplines="0 0 1 1; 0.333 0 0.397 1; 0.604 0 0.667 1; 0 0 1 1" fill="freeze" /><g transform="scale(1,1) translate(-15.952,-15.952)"><g transform="matrix(1,0,0,1,-28.6,41.399)" id="i10"><g id="i5" transform="matrix(1,0,0,1,38.679,22.649)"><path stroke-miterlimit="10" stroke-width="5" stroke="#413f56" d="M-24.647,4.404C-24.647,4.404,23.225,10.149,23.225,10.149C23.225,10.149,26.179,-3.694,1.778,-6.702C-26.179,-10.149,-24.647,4.404,-24.647,4.404Z" /></g></g></g></g></g></g></g></g></g></g><g id="i7"><g transform="translate(556.97,465.702)"><g transform="rotate(0)"><animateTransform repeatCount="indefinite" type="rotate" attributeName="transform" dur="2.125s" begin="0s" calcMode="spline" values="0; -5; 0; 0" keyTimes="0; 0.470588; 0.941176; 1" keySplines="0.333 0 0.496 1; 0.5 0 0.667 1; 0 0 1 1" fill="freeze" /><g transform="scale(1.151,1.151) translate(-97.592,-157.757)"><g id="i6"><g transform="translate(207.535,45.022)"><g transform="rotate(0)"><animateTransform repeatCount="indefinite" type="rotate" attributeName="transform" dur="2.125s" begin="0s" calcMode="spline" values="0; 0; -55; 0; 0" keyTimes="0; 0.019608; 0.490196; 0.960784; 1" keySplines="0 0 1 1; 0.333 0 0.397 1; 0.604 0 0.667 1; 0 0 1 1" fill="freeze" /><g transform="scale(1,1) translate(-15.952,-15.952)"><g transform="matrix(1,0,0,1,-28.6,41.399)" id="i10"><g transform="matrix(1,0,0,1,-31.394,27.081)" id="i10"><g transform="matrix(0.869,0,0,0.869,177.131,220.277)" opacity="0.3" id="i11"><g id="i12"><path fill="#ffffff" d="M-190,-152.5C-190,-152.5,-562.092,1050.118,-562.092,1050.118C-562.092,1050.118,-30.092,1064.117,-30.092,1064.117C-30.092,1064.117,-80.5,-141.5,-80.5,-141.5C-80.5,-141.5,-190,-152.5,-190,-152.5Z" /></g></g></g></g></g></g></g></g></g></g></g></g><g display="none" transform="matrix(1.151,0,0,1.151,703.659,572.634)" style="mix-blend-mode: hard-light" id="i13"><g id="i3" transform="matrix(1,0,0,1,63.278,83.408)"><path fill="#ffffff" fill-rule="evenodd" d="M8.293,80.437C8.293,80.437,8.293,41.996,8.293,41.996C8.293,41.996,-63.028,41.996,-63.028,41.996C-63.028,41.996,-63.028,17.584,-63.028,17.584C-63.028,17.584,-2.248,-80.437,-2.248,-80.437C-2.248,-80.437,43.818,-80.437,43.818,-80.437C43.818,-80.437,43.818,13.847,43.818,13.847C43.818,13.847,63.028,13.847,63.028,13.847C63.028,13.847,63.028,41.996,63.028,41.996C63.028,41.996,43.818,41.996,43.818,41.996C43.818,41.996,43.818,80.437,43.818,80.437C43.818,80.437,8.293,80.437,8.293,80.437ZM8.293,13.847C8.293,13.847,8.293,-21.723,8.293,-21.723C8.293,-31.383,8.807,-41.345,9.364,-51.708C9.364,-51.708,8.462,-51.747,8.462,-51.747C3.316,-41.249,-1.017,-31.95,-6.464,-21.888C-6.464,-21.888,-27.903,13.353,-27.903,13.353C-27.903,13.353,-28.05,13.847,-28.05,13.847C-28.05,13.847,8.293,13.847,8.293,13.847Z" /></g><g id="i4" transform="matrix(1,0,0,1,200.54,83.409)"><path fill="#ffffff" fill-rule="evenodd" d="M60.633,-0.666C60.633,48.9,40.516,83.159,-0.491,83.159C-42.105,83.159,-60.477,45.859,-60.633,0.351C-60.633,-46.386,-41.019,-83.159,0.587,-83.159C43.599,-83.159,60.633,-44.776,60.633,-0.666ZM-22.972,0.196C-23.07,37.224,-14.119,54.743,0.275,54.743C14.93,54.743,22.971,36.363,22.971,-0.197C22.971,-35.857,15.184,-54.597,0.195,-54.597C-13.648,-54.597,-23.021,-37.245,-22.972,0.196Z" /></g><g id="i5" transform="matrix(1,0,0,1,338.002,83.408)"><path fill="#ffffff" fill-rule="evenodd" d="M8.293,80.437C8.293,80.437,8.293,41.996,8.293,41.996C8.293,41.996,-63.028,41.996,-63.028,41.996C-63.028,41.996,-63.028,17.584,-63.028,17.584C-63.028,17.584,-2.248,-80.437,-2.248,-80.437C-2.248,-80.437,43.818,-80.437,43.818,-80.437C43.818,-80.437,43.818,13.847,43.818,13.847C43.818,13.847,63.028,13.847,63.028,13.847C63.028,13.847,63.028,41.996,63.028,41.996C63.028,41.996,43.818,41.996,43.818,41.996C43.818,41.996,43.818,80.437,43.818,80.437C43.818,80.437,8.293,80.437,8.293,80.437ZM8.293,13.847C8.293,13.847,8.293,-21.723,8.293,-21.723C8.293,-31.383,8.807,-41.345,9.364,-51.708C9.364,-51.708,8.462,-51.747,8.462,-51.747C3.316,-41.249,-1.017,-31.95,-6.464,-21.888C-6.464,-21.888,-27.903,13.353,-27.903,13.353C-27.903,13.353,-28.05,13.847,-28.05,13.847C-28.05,13.847,8.293,13.847,8.293,13.847Z" /></g></g><g mask="url(#i2)" id="i7"><g transform="translate(556.97,465.702)"><g transform="rotate(0)"><animateTransform repeatCount="indefinite" type="rotate" attributeName="transform" dur="2.125s" begin="0s" calcMode="spline" values="0; -5; 0; 0" keyTimes="0; 0.470588; 0.941176; 1" keySplines="0.333 0 0.496 1; 0.5 0 0.667 1; 0 0 1 1" fill="freeze" /><g transform="scale(1.151,1.151) translate(-97.592,-157.757)"><g id="i6"><g transform="translate(207.535,45.022)"><g transform="rotate(0)"><animateTransform repeatCount="indefinite" type="rotate" attributeName="transform" dur="2.125s" begin="0s" calcMode="spline" values="0; 0; -55; 0; 0" keyTimes="0; 0.019608; 0.490196; 0.960784; 1" keySplines="0 0 1 1; 0.333 0 0.397 1; 0.604 0 0.667 1; 0 0 1 1" fill="freeze" /><g transform="scale(1,1) translate(-15.952,-15.952)"><g transform="matrix(1,0,0,1,-28.6,41.399)" id="i10"><g transform="matrix(1,0,0,1,-31.394,27.081)" id="i10"><g transform="matrix(0.869,0,0,0.869,177.131,220.277)" id="i11"><g transform="matrix(1,0,0,1,0,0)" id="i14"><g id="i12"><path fill="url(#i0)" d="M-190,-152.5C-190,-152.5,-562.092,1050.118,-562.092,1050.118C-562.092,1050.118,-30.092,1064.117,-30.092,1064.117C-30.092,1064.117,-80.5,-141.5,-80.5,-141.5C-80.5,-141.5,-190,-152.5,-190,-152.5Z" /></g></g></g></g></g></g></g></g></g></g></g></g></g><g id="i7"><g transform="translate(556.97,465.702)"><g transform="rotate(0)"><animateTransform repeatCount="indefinite" type="rotate" attributeName="transform" dur="2.125s" begin="0s" calcMode="spline" values="0; -5; 0; 0" keyTimes="0; 0.470588; 0.941176; 1" keySplines="0.333 0 0.496 1; 0.5 0 0.667 1; 0 0 1 1" fill="freeze" /><g transform="scale(1.151,1.151) translate(-97.592,-157.757)"><g id="i6"><g transform="translate(207.535,45.022)"><g transform="rotate(0)"><animateTransform repeatCount="indefinite" type="rotate" attributeName="transform" dur="2.125s" begin="0s" calcMode="spline" values="0; 0; -55; 0; 0" keyTimes="0; 0.019608; 0.490196; 0.960784; 1" keySplines="0 0 1 1; 0.333 0 0.397 1; 0.604 0 0.667 1; 0 0 1 1" fill="freeze" /><g transform="scale(1,1) translate(-15.952,-15.952)"><g transform="matrix(1,0,0,1,-28.6,41.399)" id="i10"><g transform="matrix(1,0,0,1,-31.394,27.081)" id="i10"><g id="i4" transform="matrix(1,0,0,1,59.8,55.555)"><path stroke-miterlimit="10" stroke-width="5" stroke="#413f56" d="M47.3,43.055C47.3,43.055,11.31,38.825,11.31,38.825C11.31,38.825,-18.74,35.295,-18.74,35.295C-18.74,35.295,-47.3,31.945,-47.3,31.945C-47.3,31.945,-15.77,-43.055,-15.77,-43.055C-15.77,-43.055,34.36,-37.205,34.36,-37.205C34.36,-37.205,47.3,43.055,47.3,43.055Z" /></g><g id="i5" transform="matrix(1,0,0,1,56.085,96.835)"><path stroke-miterlimit="10" stroke-width="5" stroke="#413f56" d="M15.025,-2.455C12.245,2.575,6.875,5.985,0.715,5.985C-6.795,5.985,-13.115,0.925,-15.025,-5.985C-15.025,-5.985,15.025,-2.455,15.025,-2.455Z" /></g></g></g></g></g></g></g></g></g></g></g><g transform="matrix(1,0,0,1,1281.817,896)" id="i15"><g id="i16"><path fill="#ffffff" fill-rule="evenodd" d="M-16.666,-1.077C-15.151,-2.137,-14.04,-3.634,-13.333,-5.571C-13.333,-5.571,-13.812,-13.672,-13.812,-13.672C-13.812,-12.51,-14.017,-11.518,-14.427,-10.698C-14.837,-9.878,-15.435,-9.251,-16.221,-8.818C-17.007,-8.385,-17.959,-8.169,-19.075,-8.169C-20.83,-8.169,-22.192,-8.75,-23.16,-9.912C-24.129,-11.074,-24.612,-12.715,-24.612,-14.834C-24.612,-14.834,-24.612,-20.474,-24.612,-20.474C-24.612,-22.639,-24.129,-24.319,-23.16,-25.515C-22.192,-26.711,-20.83,-27.31,-19.075,-27.31C-17.959,-27.31,-17.007,-27.087,-16.221,-26.643C-15.435,-26.199,-14.837,-25.555,-14.427,-24.712C-14.017,-23.869,-13.812,-22.844,-13.812,-21.636C-13.812,-21.636,-13.094,-29.497,-13.094,-29.497C-14.051,-31.57,-15.31,-33.171,-16.871,-34.299C-18.432,-35.427,-20.158,-35.991,-22.049,-35.991C-25.832,-35.991,-28.765,-34.641,-30.85,-31.941C-32.935,-29.241,-33.978,-25.43,-33.978,-20.508C-33.978,-20.508,-33.978,-14.834,-33.978,-14.834C-33.978,-9.958,-32.935,-6.18,-30.85,-3.503C-28.765,-0.825,-25.832,0.513,-22.049,0.513C-19.976,0.513,-18.182,-0.017,-16.666,-1.077ZM-8.599,10.374C-5.83,7.674,-4.446,3.862,-4.446,-1.06C-4.446,-1.06,-4.446,-35.479,-4.446,-35.479C-4.446,-35.479,-13.812,-35.479,-13.812,-35.479C-13.812,-35.479,-13.812,-0.376,-13.812,-0.376C-13.812,1.56,-14.45,3.054,-15.726,4.102C-17.002,5.15,-18.586,5.674,-20.477,5.674C-21.685,5.674,-22.847,5.435,-23.963,4.956C-25.08,4.477,-26.037,3.817,-26.834,2.974C-26.834,2.974,-33.123,8.75,-33.123,8.75C-31.893,10.55,-30.167,11.946,-27.945,12.937C-25.723,13.928,-23.2,14.424,-20.374,14.424C-15.293,14.424,-11.368,13.074,-8.599,10.374Z" /></g><g id="i17"><path fill="#ffffff" fill-rule="evenodd" d="M-42.181,0C-42.181,0,-42.181,-21.533,-42.181,-21.533C-42.181,-26.136,-43.206,-29.696,-45.257,-32.214C-47.308,-34.732,-50.201,-35.991,-53.938,-35.991C-56.285,-35.991,-58.194,-35.41,-59.664,-34.248C-61.134,-33.086,-62.381,-31.434,-63.406,-29.292C-63.406,-29.292,-62.688,-21.431,-62.688,-21.431C-62.688,-23.185,-62.216,-24.546,-61.27,-25.515C-60.325,-26.483,-58.986,-26.968,-57.254,-26.968C-55.431,-26.968,-54.024,-26.494,-53.033,-25.549C-52.042,-24.603,-51.546,-23.253,-51.546,-21.499C-51.546,-21.499,-51.546,0,-51.546,0C-51.546,0,-42.181,0,-42.181,0ZM-62.688,0C-62.688,0,-62.688,-35.479,-62.688,-35.479C-62.688,-35.479,-72.054,-35.479,-72.054,-35.479C-72.054,-35.479,-72.054,0,-72.054,0C-72.054,0,-62.688,0,-62.688,0Z" /></g><g id="i18"><path fill="#ffffff" fill-rule="evenodd" d="M-100.303,-10.168C-101.34,-11.273,-101.858,-12.829,-101.858,-14.834C-101.858,-14.834,-101.858,-20.713,-101.858,-20.713C-101.858,-22.695,-101.34,-24.233,-100.303,-25.327C-99.266,-26.421,-97.814,-26.968,-95.945,-26.968C-94.054,-26.968,-92.584,-26.421,-91.536,-25.327C-90.488,-24.233,-89.964,-22.695,-89.964,-20.713C-89.964,-20.713,-89.964,-14.834,-89.964,-14.834C-89.964,-12.829,-90.488,-11.273,-91.536,-10.168C-92.584,-9.063,-94.054,-8.511,-95.945,-8.511C-97.814,-8.511,-99.266,-9.063,-100.303,-10.168ZM-84.598,-3.503C-81.932,-6.18,-80.599,-9.958,-80.599,-14.834C-80.599,-14.834,-80.599,-20.713,-80.599,-20.713C-80.599,-25.567,-81.932,-29.326,-84.598,-31.992C-87.264,-34.658,-91.035,-35.991,-95.911,-35.991C-100.787,-35.991,-104.559,-34.658,-107.225,-31.992C-109.891,-29.326,-111.224,-25.567,-111.224,-20.713C-111.224,-20.713,-111.224,-14.937,-111.224,-14.937C-111.224,-10.038,-109.891,-6.238,-107.225,-3.538C-104.559,-0.838,-100.787,0.513,-95.911,0.513C-91.035,0.513,-87.264,-0.825,-84.598,-3.503Z" /></g><g id="i19"><path fill="#ffffff" fill-rule="evenodd" d="M-113.958,-33.223C-114.847,-34.134,-115.889,-34.824,-117.085,-35.291C-118.281,-35.758,-119.621,-35.991,-121.102,-35.991C-122.971,-35.991,-124.685,-35.399,-126.246,-34.214C-127.807,-33.029,-129.078,-31.388,-130.057,-29.292C-130.057,-29.292,-129.339,-20.063,-129.339,-20.063C-129.339,-22.228,-128.821,-23.92,-127.784,-25.139C-126.747,-26.358,-125.284,-26.968,-123.392,-26.968C-122.526,-26.968,-121.756,-26.854,-121.084,-26.626C-120.412,-26.398,-119.86,-26.057,-119.427,-25.601C-119.427,-25.601,-113.958,-33.223,-113.958,-33.223ZM-129.339,0C-129.339,0,-129.339,-35.479,-129.339,-35.479C-129.339,-35.479,-139.388,-35.479,-139.388,-35.479C-139.388,-35.479,-139.388,0,-139.388,0C-139.388,0,-129.339,0,-129.339,0Z" /></g><g id="i20"><path fill="#ffffff" d="M-191.751,-49.697C-191.751,-49.697,-201.39,-49.697,-201.39,-49.697C-201.39,-49.697,-189.939,0,-189.939,0C-189.939,0,-181.121,0,-181.121,0C-181.121,0,-171.893,-34.727,-171.893,-34.727C-171.893,-34.727,-163.074,0,-163.074,0C-163.074,0,-154.256,0,-154.256,0C-154.256,0,-142.806,-49.697,-142.806,-49.697C-142.806,-49.697,-152.444,-49.697,-152.444,-49.697C-152.444,-49.697,-158.836,-16.543,-158.836,-16.543C-158.836,-16.543,-168.338,-49.697,-168.338,-49.697C-168.338,-49.697,-175.857,-49.697,-175.857,-49.697C-175.857,-49.697,-185.359,-16.543,-185.359,-16.543C-185.359,-16.543,-191.751,-49.697,-191.751,-49.697Z" /></g><g id="i21"><path fill="#ffffff" fill-rule="evenodd" d="M-223.948,-27.48C-223.948,-27.48,-223.948,-35.479,-223.948,-35.479C-223.948,-35.479,-241.312,-35.479,-241.312,-35.479C-241.312,-35.479,-241.312,-27.48,-241.312,-27.48C-241.312,-27.48,-223.948,-27.48,-223.948,-27.48ZM-223.948,0.171C-223.948,0.171,-223.948,-8.853,-223.948,-8.853C-223.948,-8.853,-226.272,-8.853,-226.272,-8.853C-226.933,-8.853,-227.434,-9.091,-227.776,-9.57C-228.118,-10.049,-228.289,-10.71,-228.289,-11.553C-228.289,-11.553,-228.289,-45.801,-228.289,-45.801C-228.289,-45.801,-237.654,-45.801,-237.654,-45.801C-237.654,-45.801,-237.654,-9.229,-237.654,-9.229C-237.654,-6.198,-236.948,-3.874,-235.535,-2.256C-234.122,-0.638,-231.832,0.171,-228.665,0.171C-228.665,0.171,-223.948,0.171,-223.948,0.171Z" /></g><g id="i17"><path fill="#ffffff" fill-rule="evenodd" d="M-247.806,0C-247.806,0,-247.806,-21.533,-247.806,-21.533C-247.806,-26.136,-248.831,-29.696,-250.882,-32.214C-252.933,-34.732,-255.826,-35.991,-259.563,-35.991C-261.91,-35.991,-263.819,-35.41,-265.289,-34.248C-266.759,-33.086,-268.006,-31.434,-269.031,-29.292C-269.031,-29.292,-268.313,-21.431,-268.313,-21.431C-268.313,-23.185,-267.841,-24.546,-266.895,-25.515C-265.95,-26.483,-264.611,-26.968,-262.879,-26.968C-261.056,-26.968,-259.649,-26.494,-258.658,-25.549C-257.667,-24.603,-257.171,-23.253,-257.171,-21.499C-257.171,-21.499,-257.171,0,-257.171,0C-257.171,0,-247.806,0,-247.806,0ZM-268.313,0C-268.313,0,-268.313,-35.479,-268.313,-35.479C-268.313,-35.479,-277.679,-35.479,-277.679,-35.479C-277.679,-35.479,-277.679,0,-277.679,0C-277.679,0,-268.313,0,-268.313,0Z" /></g><g id="i22"><path fill="#ffffff" d="M-293.025,-0.872C-290.724,-1.795,-288.651,-3.098,-286.805,-4.785C-286.805,-4.785,-292.923,-10.22,-292.923,-10.22C-293.926,-9.4,-295.042,-8.767,-296.272,-8.323C-297.502,-7.879,-298.745,-7.656,-299.998,-7.656C-302.437,-7.656,-304.334,-8.317,-305.689,-9.639C-307.045,-10.96,-307.723,-12.828,-307.723,-15.244C-307.723,-15.244,-307.723,-19.756,-307.723,-19.756C-307.723,-22.217,-307.102,-24.119,-305.86,-25.464C-304.618,-26.808,-302.869,-27.48,-300.613,-27.48C-298.859,-27.48,-297.468,-26.917,-296.443,-25.789C-295.418,-24.661,-294.78,-23.083,-294.529,-21.055C-294.529,-21.055,-294.427,-20.234,-294.427,-20.234C-294.427,-20.234,-310.149,-20.234,-310.149,-20.234C-310.149,-20.234,-310.149,-13.911,-310.149,-13.911C-310.149,-13.911,-285.882,-13.911,-285.882,-13.911C-285.882,-13.911,-285.882,-16.235,-285.882,-16.235C-285.882,-22.501,-287.164,-27.361,-289.727,-30.813C-292.29,-34.265,-295.919,-35.991,-300.613,-35.991C-305.581,-35.991,-309.426,-34.544,-312.149,-31.65C-314.872,-28.756,-316.233,-24.666,-316.233,-19.38C-316.233,-19.38,-316.233,-15.381,-316.233,-15.381C-316.233,-10.322,-314.815,-6.409,-311.978,-3.64C-309.141,-0.871,-305.148,0.513,-299.998,0.513C-297.651,0.513,-295.327,0.051,-293.025,-0.872Z" /></g><g id="i20"><path fill="#ffffff" d="M-366.204,-49.697C-366.204,-49.697,-375.843,-49.697,-375.843,-49.697C-375.843,-49.697,-364.393,0,-364.393,0C-364.393,0,-355.574,0,-355.574,0C-355.574,0,-346.346,-34.727,-346.346,-34.727C-346.346,-34.727,-337.527,0,-337.527,0C-337.527,0,-328.709,0,-328.709,0C-328.709,0,-317.259,-49.697,-317.259,-49.697C-317.259,-49.697,-326.897,-49.697,-326.897,-49.697C-326.897,-49.697,-333.289,-16.543,-333.289,-16.543C-333.289,-16.543,-342.791,-49.697,-342.791,-49.697C-342.791,-49.697,-350.311,-49.697,-350.311,-49.697C-350.311,-49.697,-359.812,-16.543,-359.812,-16.543C-359.812,-16.543,-366.204,-49.697,-366.204,-49.697Z" /></g><g id="i16"><path fill="#ffffff" fill-rule="evenodd" d="M-411.646,-1.077C-410.131,-2.137,-409.02,-3.634,-408.313,-5.571C-408.313,-5.571,-408.792,-13.672,-408.792,-13.672C-408.792,-12.51,-408.997,-11.518,-409.407,-10.698C-409.817,-9.878,-410.416,-9.251,-411.202,-8.818C-411.988,-8.385,-412.94,-8.169,-414.056,-8.169C-415.811,-8.169,-417.172,-8.75,-418.14,-9.912C-419.109,-11.074,-419.593,-12.715,-419.593,-14.834C-419.593,-14.834,-419.593,-20.474,-419.593,-20.474C-419.593,-22.639,-419.109,-24.319,-418.14,-25.515C-417.172,-26.711,-415.811,-27.31,-414.056,-27.31C-412.94,-27.31,-411.988,-27.087,-411.202,-26.643C-410.416,-26.199,-409.817,-25.555,-409.407,-24.712C-408.997,-23.869,-408.792,-22.844,-408.792,-21.636C-408.792,-21.636,-408.074,-29.497,-408.074,-29.497C-409.031,-31.57,-410.29,-33.171,-411.851,-34.299C-413.412,-35.427,-415.138,-35.991,-417.029,-35.991C-420.812,-35.991,-423.746,-34.641,-425.831,-31.941C-427.916,-29.241,-428.958,-25.43,-428.958,-20.508C-428.958,-20.508,-428.958,-14.834,-428.958,-14.834C-428.958,-9.958,-427.916,-6.18,-425.831,-3.503C-423.746,-0.825,-420.812,0.513,-417.029,0.513C-414.956,0.513,-413.162,-0.017,-411.646,-1.077ZM-403.58,10.374C-400.811,7.674,-399.427,3.862,-399.427,-1.06C-399.427,-1.06,-399.427,-35.479,-399.427,-35.479C-399.427,-35.479,-408.792,-35.479,-408.792,-35.479C-408.792,-35.479,-408.792,-0.376,-408.792,-0.376C-408.792,1.56,-409.43,3.054,-410.706,4.102C-411.982,5.15,-413.566,5.674,-415.457,5.674C-416.665,5.674,-417.827,5.435,-418.943,4.956C-420.06,4.477,-421.017,3.817,-421.814,2.974C-421.814,2.974,-428.104,8.75,-428.104,8.75C-426.874,10.55,-425.147,11.946,-422.925,12.937C-420.703,13.928,-418.18,14.424,-415.354,14.424C-410.273,14.424,-406.349,13.074,-403.58,10.374Z" /></g><g id="i17"><path fill="#ffffff" fill-rule="evenodd" d="M-437.161,0C-437.161,0,-437.161,-21.533,-437.161,-21.533C-437.161,-26.136,-438.186,-29.696,-440.237,-32.214C-442.288,-34.732,-445.182,-35.991,-448.919,-35.991C-451.266,-35.991,-453.174,-35.41,-454.644,-34.248C-456.114,-33.086,-457.362,-31.434,-458.387,-29.292C-458.387,-29.292,-457.669,-21.431,-457.669,-21.431C-457.669,-23.185,-457.196,-24.546,-456.25,-25.515C-455.305,-26.483,-453.966,-26.968,-452.234,-26.968C-450.411,-26.968,-449.004,-26.494,-448.013,-25.549C-447.022,-24.603,-446.526,-23.253,-446.526,-21.499C-446.526,-21.499,-446.526,0,-446.526,0C-446.526,0,-437.161,0,-437.161,0ZM-457.669,0C-457.669,0,-457.669,-35.479,-457.669,-35.479C-457.669,-35.479,-467.034,-35.479,-467.034,-35.479C-467.034,-35.479,-467.034,0,-467.034,0C-467.034,0,-457.669,0,-457.669,0Z" /></g><g id="i23"><path fill="#ffffff" fill-rule="evenodd" d="M-475.75,0C-475.75,0,-475.75,-35.479,-475.75,-35.479C-475.75,-35.479,-485.115,-35.479,-485.115,-35.479C-485.115,-35.479,-485.115,0,-485.115,0C-485.115,0,-475.75,0,-475.75,0ZM-475.75,-40.332C-475.75,-40.332,-475.75,-49.697,-475.75,-49.697C-475.75,-49.697,-485.115,-49.697,-485.115,-49.697C-485.115,-49.697,-485.115,-40.332,-485.115,-40.332C-485.115,-40.332,-475.75,-40.332,-475.75,-40.332Z" /></g><g id="i24"><path fill="#ffffff" fill-rule="evenodd" d="M-493.831,0C-493.831,0,-493.831,-21.533,-493.831,-21.533C-493.831,-26.136,-494.856,-29.696,-496.907,-32.214C-498.958,-34.732,-501.852,-35.991,-505.589,-35.991C-507.936,-35.991,-509.844,-35.41,-511.314,-34.248C-512.784,-33.086,-514.032,-31.434,-515.057,-29.292C-515.057,-29.292,-514.339,-21.431,-514.339,-21.431C-514.339,-23.185,-513.866,-24.546,-512.92,-25.515C-511.975,-26.483,-510.636,-26.968,-508.904,-26.968C-507.081,-26.968,-505.674,-26.494,-504.683,-25.549C-503.692,-24.603,-503.196,-23.253,-503.196,-21.499C-503.196,-21.499,-503.196,0,-503.196,0C-503.196,0,-493.831,0,-493.831,0ZM-514.339,0C-514.339,0,-514.339,-49.697,-514.339,-49.697C-514.339,-49.697,-523.704,-49.697,-523.704,-49.697C-523.704,-49.697,-523.704,0,-523.704,0C-523.704,0,-514.339,0,-514.339,0Z" /></g><g id="i21"><path fill="#ffffff" fill-rule="evenodd" d="M-531.907,-27.48C-531.907,-27.48,-531.907,-35.479,-531.907,-35.479C-531.907,-35.479,-549.271,-35.479,-549.271,-35.479C-549.271,-35.479,-549.271,-27.48,-549.271,-27.48C-549.271,-27.48,-531.907,-27.48,-531.907,-27.48ZM-531.907,0.171C-531.907,0.171,-531.907,-8.853,-531.907,-8.853C-531.907,-8.853,-534.231,-8.853,-534.231,-8.853C-534.892,-8.853,-535.393,-9.091,-535.735,-9.57C-536.077,-10.049,-536.248,-10.71,-536.248,-11.553C-536.248,-11.553,-536.248,-45.801,-536.248,-45.801C-536.248,-45.801,-545.613,-45.801,-545.613,-45.801C-545.613,-45.801,-545.613,-9.229,-545.613,-9.229C-545.613,-6.198,-544.907,-3.874,-543.494,-2.256C-542.081,-0.638,-539.791,0.171,-536.624,0.171C-536.624,0.171,-531.907,0.171,-531.907,0.171Z" /></g><g id="i22"><path fill="#ffffff" d="M-561.883,-0.872C-559.582,-1.795,-557.508,-3.098,-555.662,-4.785C-555.662,-4.785,-561.78,-10.22,-561.78,-10.22C-562.783,-9.4,-563.9,-8.767,-565.13,-8.323C-566.36,-7.879,-567.602,-7.656,-568.855,-7.656C-571.293,-7.656,-573.191,-8.317,-574.546,-9.639C-575.902,-10.96,-576.58,-12.828,-576.58,-15.244C-576.58,-15.244,-576.58,-19.756,-576.58,-19.756C-576.58,-22.217,-575.959,-24.119,-574.717,-25.464C-573.475,-26.808,-571.727,-27.48,-569.471,-27.48C-567.717,-27.48,-566.326,-26.917,-565.301,-25.789C-564.276,-24.661,-563.638,-23.083,-563.387,-21.055C-563.387,-21.055,-563.284,-20.234,-563.284,-20.234C-563.284,-20.234,-579.007,-20.234,-579.007,-20.234C-579.007,-20.234,-579.007,-13.911,-579.007,-13.911C-579.007,-13.911,-554.739,-13.911,-554.739,-13.911C-554.739,-13.911,-554.739,-16.235,-554.739,-16.235C-554.739,-22.501,-556.021,-27.361,-558.584,-30.813C-561.147,-34.265,-564.777,-35.991,-569.471,-35.991C-574.439,-35.991,-578.283,-34.544,-581.006,-31.65C-583.729,-28.756,-585.091,-24.666,-585.091,-19.38C-585.091,-19.38,-585.091,-15.381,-585.091,-15.381C-585.091,-10.322,-583.672,-6.409,-580.835,-3.64C-577.998,-0.871,-574.005,0.513,-568.855,0.513C-566.508,0.513,-564.185,0.051,-561.883,-0.872Z" /></g><g id="i25"><path fill="#ffffff" fill-rule="evenodd" d="M-613.973,0C-613.973,0,-613.973,-20.508,-613.973,-20.508C-613.973,-25.43,-615.01,-29.241,-617.083,-31.941C-619.157,-34.641,-622.096,-35.991,-625.901,-35.991C-628.066,-35.991,-629.929,-35.41,-631.49,-34.248C-633.051,-33.086,-634.344,-31.434,-635.369,-29.292C-635.369,-29.292,-634.651,-21.431,-634.651,-21.431C-634.651,-23.185,-634.179,-24.546,-633.233,-25.515C-632.288,-26.483,-630.949,-26.968,-629.217,-26.968C-627.326,-26.968,-625.873,-26.404,-624.859,-25.276C-623.845,-24.148,-623.338,-22.547,-623.338,-20.474C-623.338,-20.474,-623.338,0,-623.338,0C-623.338,0,-613.973,0,-613.973,0ZM-634.651,0C-634.651,0,-634.651,-35.479,-634.651,-35.479C-634.651,-35.479,-644.017,-35.479,-644.017,-35.479C-644.017,-35.479,-644.017,0,-644.017,0C-644.017,0,-634.651,0,-634.651,0ZM-593.294,0C-593.294,0,-593.294,-20.508,-593.294,-20.508C-593.294,-25.43,-594.349,-29.241,-596.456,-31.941C-598.564,-34.641,-601.543,-35.991,-605.394,-35.991C-607.559,-35.991,-609.541,-35.382,-611.341,-34.163C-613.141,-32.944,-614.6,-31.206,-615.716,-28.95C-615.716,-28.95,-613.973,-20.747,-613.973,-20.747C-613.973,-22.729,-613.489,-24.261,-612.52,-25.344C-611.552,-26.426,-610.167,-26.968,-608.367,-26.968C-606.544,-26.968,-605.137,-26.404,-604.146,-25.276C-603.155,-24.148,-602.659,-22.547,-602.659,-20.474C-602.659,-20.474,-602.659,0,-602.659,0C-602.659,0,-593.294,0,-593.294,0Z" /></g><g id="i18"><path fill="#ffffff" fill-rule="evenodd" d="M-672.266,-10.168C-673.303,-11.273,-673.821,-12.829,-673.821,-14.834C-673.821,-14.834,-673.821,-20.713,-673.821,-20.713C-673.821,-22.695,-673.303,-24.233,-672.266,-25.327C-671.229,-26.421,-669.777,-26.968,-667.908,-26.968C-666.017,-26.968,-664.547,-26.421,-663.499,-25.327C-662.451,-24.233,-661.927,-22.695,-661.927,-20.713C-661.927,-20.713,-661.927,-14.834,-661.927,-14.834C-661.927,-12.829,-662.451,-11.273,-663.499,-10.168C-664.547,-9.063,-666.017,-8.511,-667.908,-8.511C-669.777,-8.511,-671.229,-9.063,-672.266,-10.168ZM-656.561,-3.503C-653.895,-6.18,-652.562,-9.958,-652.562,-14.834C-652.562,-14.834,-652.562,-20.713,-652.562,-20.713C-652.562,-25.567,-653.895,-29.326,-656.561,-31.992C-659.227,-34.658,-662.998,-35.991,-667.874,-35.991C-672.75,-35.991,-676.522,-34.658,-679.188,-31.992C-681.854,-29.326,-683.187,-25.567,-683.187,-20.713C-683.187,-20.713,-683.187,-14.937,-683.187,-14.937C-683.187,-10.038,-681.854,-6.238,-679.188,-3.538C-676.522,-0.838,-672.75,0.513,-667.874,0.513C-662.998,0.513,-659.227,-0.825,-656.561,-3.503Z" /></g><g id="i26"><path fill="#ffffff" d="M-694.979,-3.435C-691.675,-6.067,-690.022,-9.776,-690.022,-14.561C-690.022,-14.561,-690.022,-14.629,-690.022,-14.629C-690.022,-17.432,-690.49,-19.71,-691.424,-21.465C-692.359,-23.219,-693.612,-24.598,-695.184,-25.601C-696.756,-26.603,-698.488,-27.372,-700.379,-27.908C-702.271,-28.443,-704.173,-28.893,-706.087,-29.258C-707.819,-29.6,-709.436,-29.97,-710.94,-30.369C-712.444,-30.767,-713.664,-31.377,-714.598,-32.197C-715.533,-33.017,-715.999,-34.225,-715.999,-35.82C-715.999,-35.82,-715.999,-35.854,-715.999,-35.854C-715.999,-37.563,-715.213,-38.89,-713.641,-39.836C-712.069,-40.781,-709.847,-41.255,-706.976,-41.255C-705.062,-41.255,-703.062,-40.896,-700.977,-40.178C-698.892,-39.46,-696.893,-38.429,-694.979,-37.085C-694.979,-37.085,-691.014,-45.015,-691.014,-45.015C-693.407,-46.678,-695.992,-47.96,-698.772,-48.86C-701.552,-49.76,-704.288,-50.21,-706.976,-50.21C-712.809,-50.21,-717.321,-48.882,-720.511,-46.228C-723.701,-43.573,-725.296,-39.82,-725.296,-34.966C-725.296,-34.966,-725.296,-34.932,-725.296,-34.932C-725.296,-31.924,-724.789,-29.52,-723.775,-27.72C-722.761,-25.92,-721.423,-24.535,-719.759,-23.567C-718.096,-22.598,-716.272,-21.892,-714.29,-21.448C-712.308,-21.004,-710.348,-20.633,-708.411,-20.337C-706.793,-20.086,-705.296,-19.778,-703.917,-19.414C-702.539,-19.049,-701.427,-18.485,-700.584,-17.722C-699.741,-16.958,-699.319,-15.86,-699.319,-14.424C-699.319,-14.424,-699.319,-14.39,-699.319,-14.39C-699.319,-12.498,-700.163,-11.035,-701.849,-9.998C-703.536,-8.961,-705.905,-8.442,-708.958,-8.442C-711.602,-8.442,-714.177,-8.87,-716.683,-9.724C-719.19,-10.578,-721.399,-11.792,-723.313,-13.364C-723.313,-13.364,-727.654,-5.64,-727.654,-5.64C-726.059,-4.341,-724.27,-3.23,-722.288,-2.307C-720.306,-1.384,-718.182,-0.684,-715.914,-0.205C-713.647,0.274,-711.328,0.513,-708.958,0.513C-702.942,0.513,-698.283,-0.803,-694.979,-3.435Z" /></g><g id="i27"><path fill="#ffffff" fill-rule="evenodd" d="M-753.631,0C-753.631,0,-753.631,-9.365,-753.631,-9.365C-753.631,-9.365,-762.996,-9.365,-762.996,-9.365C-762.996,-9.365,-762.996,0,-762.996,0C-762.996,0,-753.631,0,-753.631,0ZM-753.631,-14.8C-753.631,-14.8,-753.631,-49.697,-753.631,-49.697C-753.631,-49.697,-762.996,-49.697,-762.996,-49.697C-762.996,-49.697,-762.996,-14.8,-762.996,-14.8C-762.996,-14.8,-753.631,-14.8,-753.631,-14.8Z" /></g><g id="i28"><path fill="#ffffff" d="M-774.498,-2.563C-771.844,-4.614,-770.516,-7.497,-770.516,-11.211C-770.516,-13.649,-770.926,-15.563,-771.746,-16.953C-772.566,-18.343,-773.643,-19.379,-774.976,-20.063C-776.309,-20.747,-777.773,-21.22,-779.368,-21.482C-780.963,-21.744,-782.547,-21.965,-784.119,-22.148C-785.486,-22.307,-786.762,-22.462,-787.947,-22.61C-789.132,-22.758,-790.089,-23.003,-790.818,-23.345C-791.547,-23.687,-791.912,-24.199,-791.912,-24.883C-791.912,-25.68,-791.388,-26.289,-790.34,-26.711C-789.292,-27.132,-787.823,-27.344,-785.931,-27.344C-784.382,-27.344,-782.764,-27.105,-781.077,-26.626C-779.391,-26.147,-777.774,-25.475,-776.224,-24.609C-776.224,-24.609,-770.652,-31.411,-770.652,-31.411C-772.726,-32.869,-775.078,-33.997,-777.71,-34.795C-780.342,-35.592,-783.015,-35.991,-785.726,-35.991C-790.352,-35.991,-793.929,-35.011,-796.458,-33.052C-798.987,-31.092,-800.252,-28.323,-800.252,-24.746C-800.252,-22.49,-799.887,-20.707,-799.158,-19.397C-798.429,-18.086,-797.449,-17.107,-796.219,-16.458C-794.989,-15.809,-793.627,-15.341,-792.134,-15.056C-790.642,-14.771,-789.132,-14.526,-787.605,-14.321C-786.101,-14.116,-784.678,-13.951,-783.333,-13.826C-781.989,-13.7,-780.901,-13.444,-780.069,-13.057C-779.237,-12.669,-778.821,-11.951,-778.821,-10.903C-778.821,-10.037,-779.425,-9.36,-780.633,-8.87C-781.841,-8.38,-783.538,-8.135,-785.726,-8.135C-787.413,-8.135,-789.19,-8.43,-791.058,-9.023C-792.927,-9.615,-794.715,-10.459,-796.424,-11.553C-796.424,-11.553,-802.2,-4.341,-802.2,-4.341C-800.172,-2.814,-797.717,-1.623,-794.834,-0.769C-791.952,0.085,-788.916,0.513,-785.726,0.513C-780.895,0.513,-777.153,-0.512,-774.498,-2.563Z" /></g><g id="i29"><path fill="#ffffff" fill-rule="evenodd" d="M-810.95,-3.503C-808.877,-6.18,-807.84,-9.958,-807.84,-14.834C-807.84,-14.834,-807.84,-20.508,-807.84,-20.508C-807.84,-25.43,-808.877,-29.241,-810.95,-31.941C-813.024,-34.641,-815.964,-35.991,-819.769,-35.991C-821.661,-35.991,-823.386,-35.427,-824.947,-34.299C-826.508,-33.171,-827.767,-31.57,-828.724,-29.497C-828.724,-29.497,-828.006,-21.636,-828.006,-21.636C-828.006,-22.844,-827.801,-23.869,-827.391,-24.712C-826.981,-25.555,-826.382,-26.199,-825.596,-26.643C-824.81,-27.087,-823.859,-27.31,-822.742,-27.31C-820.988,-27.31,-819.627,-26.711,-818.658,-25.515C-817.69,-24.319,-817.205,-22.639,-817.205,-20.474C-817.205,-20.474,-817.205,-14.834,-817.205,-14.834C-817.205,-12.715,-817.69,-11.074,-818.658,-9.912C-819.627,-8.75,-820.988,-8.169,-822.742,-8.169C-823.859,-8.169,-824.81,-8.385,-825.596,-8.818C-826.382,-9.251,-826.981,-9.878,-827.391,-10.698C-827.801,-11.518,-828.006,-12.51,-828.006,-13.672C-828.006,-13.672,-828.484,-5.571,-828.484,-5.571C-827.755,-3.634,-826.639,-2.137,-825.135,-1.077C-823.631,-0.017,-821.843,0.513,-819.769,0.513C-815.964,0.513,-813.024,-0.825,-810.95,-3.503ZM-828.006,14.424C-828.006,14.424,-828.006,-35.479,-828.006,-35.479C-828.006,-35.479,-837.371,-35.479,-837.371,-35.479C-837.371,-35.479,-837.371,14.424,-837.371,14.424C-837.371,14.424,-828.006,14.424,-828.006,14.424Z" /></g><g id="i18"><path fill="#ffffff" fill-rule="evenodd" d="M-865.621,-10.168C-866.658,-11.273,-867.176,-12.829,-867.176,-14.834C-867.176,-14.834,-867.176,-20.713,-867.176,-20.713C-867.176,-22.695,-866.658,-24.233,-865.621,-25.327C-864.584,-26.421,-863.132,-26.968,-861.263,-26.968C-859.372,-26.968,-857.902,-26.421,-856.854,-25.327C-855.806,-24.233,-855.281,-22.695,-855.281,-20.713C-855.281,-20.713,-855.281,-14.834,-855.281,-14.834C-855.281,-12.829,-855.806,-11.273,-856.854,-10.168C-857.902,-9.063,-859.372,-8.511,-861.263,-8.511C-863.132,-8.511,-864.584,-9.063,-865.621,-10.168ZM-849.915,-3.503C-847.249,-6.18,-845.916,-9.958,-845.916,-14.834C-845.916,-14.834,-845.916,-20.713,-845.916,-20.713C-845.916,-25.567,-847.249,-29.326,-849.915,-31.992C-852.581,-34.658,-856.353,-35.991,-861.229,-35.991C-866.105,-35.991,-869.876,-34.658,-872.542,-31.992C-875.208,-29.326,-876.541,-25.567,-876.541,-20.713C-876.541,-20.713,-876.541,-14.937,-876.541,-14.937C-876.541,-10.038,-875.208,-6.238,-872.542,-3.538C-869.876,-0.838,-866.105,0.513,-861.229,0.513C-856.353,0.513,-852.581,-0.825,-849.915,-3.503Z" /></g><g id="i18"><path fill="#ffffff" fill-rule="evenodd" d="M-903.765,-10.168C-904.802,-11.273,-905.32,-12.829,-905.32,-14.834C-905.32,-14.834,-905.32,-20.713,-905.32,-20.713C-905.32,-22.695,-904.802,-24.233,-903.765,-25.327C-902.728,-26.421,-901.276,-26.968,-899.407,-26.968C-897.516,-26.968,-896.046,-26.421,-894.998,-25.327C-893.95,-24.233,-893.426,-22.695,-893.426,-20.713C-893.426,-20.713,-893.426,-14.834,-893.426,-14.834C-893.426,-12.829,-893.95,-11.273,-894.998,-10.168C-896.046,-9.063,-897.516,-8.511,-899.407,-8.511C-901.276,-8.511,-902.728,-9.063,-903.765,-10.168ZM-888.06,-3.503C-885.394,-6.18,-884.061,-9.958,-884.061,-14.834C-884.061,-14.834,-884.061,-20.713,-884.061,-20.713C-884.061,-25.567,-885.394,-29.326,-888.06,-31.992C-890.726,-34.658,-894.497,-35.991,-899.373,-35.991C-904.249,-35.991,-908.021,-34.658,-910.687,-31.992C-913.353,-29.326,-914.686,-25.567,-914.686,-20.713C-914.686,-20.713,-914.686,-14.937,-914.686,-14.937C-914.686,-10.038,-913.353,-6.238,-910.687,-3.538C-908.021,-0.838,-904.249,0.513,-899.373,0.513C-894.497,0.513,-890.726,-0.825,-888.06,-3.503Z" /></g><g id="i30"><path fill="#ffffff" fill-rule="evenodd" d="M-947.173,-11.245C-948.711,-12.84,-949.48,-14.947,-949.48,-17.568C-949.48,-17.568,-949.48,-32.129,-949.48,-32.129C-949.48,-34.772,-948.711,-36.885,-947.173,-38.469C-945.635,-40.052,-943.59,-40.845,-941.038,-40.845C-938.486,-40.845,-936.441,-40.052,-934.903,-38.469C-933.365,-36.885,-932.596,-34.772,-932.596,-32.129C-932.596,-32.129,-932.596,-17.568,-932.596,-17.568C-932.596,-14.947,-933.365,-12.84,-934.903,-11.245C-936.441,-9.65,-938.486,-8.853,-941.038,-8.853C-943.59,-8.853,-945.635,-9.65,-947.173,-11.245ZM-931.485,-1.76C-928.762,-3.275,-926.649,-5.412,-925.145,-8.169C-923.641,-10.926,-922.889,-14.139,-922.889,-17.808C-922.889,-17.808,-922.889,-31.89,-922.889,-31.89C-922.889,-35.581,-923.641,-38.799,-925.145,-41.545C-926.649,-44.291,-928.762,-46.421,-931.485,-47.937C-934.208,-49.452,-937.392,-50.21,-941.038,-50.21C-944.684,-50.21,-947.868,-49.452,-950.591,-47.937C-953.314,-46.421,-955.428,-44.291,-956.932,-41.545C-958.436,-38.799,-959.188,-35.581,-959.188,-31.89C-959.188,-31.89,-959.188,-17.808,-959.188,-17.808C-959.188,-14.139,-958.436,-10.926,-956.932,-8.169C-955.428,-5.412,-953.314,-3.275,-950.591,-1.76C-947.868,-0.244,-944.684,0.513,-941.038,0.513C-937.392,0.513,-934.208,-0.244,-931.485,-1.76Z" /></g></g><g transform="matrix(1,0,0,1,1089.47,970)" id="i31"><g id="i19"><path fill="#9b9b9d" d="M-1.531,-16.875C-2.246,-16.875,-2.832,-16.805,-3.289,-16.664C-3.84,-16.512,-4.379,-16.277,-4.906,-15.961C-5.387,-15.656,-5.868,-15.352,-6.348,-15.047C-6.383,-15.023,-6.413,-15.012,-6.436,-15.012C-6.588,-15.012,-6.693,-15.357,-6.752,-16.049C-6.811,-16.74,-6.934,-17.086,-7.121,-17.086C-7.027,-17.086,-7.613,-16.968,-8.879,-16.734C-9.664,-16.64,-10.274,-16.57,-10.707,-16.523C-10.859,-16.464,-10.936,-16.366,-10.936,-16.225C-10.936,-16.178,-10.924,-16.108,-10.9,-16.014C-10.361,-14.256,-10.092,-11.929,-10.092,-9.035C-10.092,-8.074,-10.107,-6.639,-10.136,-4.729C-10.165,-2.819,-10.18,-1.388,-10.18,-0.439C-10.18,-0.146,-10.045,0,-9.775,0C-9.412,0,-8.861,0.006,-8.123,0.018C-7.385,0.03,-6.834,0.035,-6.471,0.035C-6.202,0.035,-6.066,-0.123,-6.066,-0.439C-6.066,-1.095,-6.093,-2.092,-6.146,-3.428C-6.199,-4.764,-6.225,-5.76,-6.225,-6.416C-6.225,-6.416,-6.225,-8.35,-6.225,-8.35C-6.225,-9.944,-6.101,-10.992,-5.855,-11.496C-5.445,-12.328,-4.502,-12.744,-3.025,-12.744C-2.767,-12.744,-2.39,-12.718,-1.892,-12.665C-1.394,-12.612,-1.021,-12.586,-0.775,-12.586C-0.576,-12.586,-0.459,-12.72,-0.424,-12.99C-0.248,-14.045,-0.16,-15.217,-0.16,-16.506C-0.16,-16.752,-0.617,-16.875,-1.531,-16.875Z" /></g><g id="i18"><path fill="#9b9b9d" fill-rule="evenodd" d="M-17.721,-4.869C-18.647,-3.779,-19.807,-3.234,-21.201,-3.234C-22.584,-3.234,-23.745,-3.779,-24.682,-4.869C-25.573,-5.9,-26.018,-7.119,-26.018,-8.525C-26.018,-9.955,-25.578,-11.179,-24.699,-12.199C-23.773,-13.254,-22.607,-13.781,-21.201,-13.781C-19.795,-13.781,-18.635,-13.248,-17.721,-12.182C-16.842,-11.174,-16.402,-9.955,-16.402,-8.525C-16.402,-7.119,-16.842,-5.9,-17.721,-4.869ZM-15.119,-14.783C-16.76,-16.541,-18.787,-17.42,-21.201,-17.42C-23.627,-17.42,-25.666,-16.541,-27.318,-14.783C-28.924,-13.06,-29.727,-10.974,-29.727,-8.525C-29.727,-6.076,-28.924,-3.991,-27.318,-2.268C-25.677,-0.487,-23.639,0.404,-21.201,0.404C-18.775,0.404,-16.743,-0.492,-15.102,-2.285C-13.497,-4.019,-12.693,-6.112,-12.693,-8.561C-12.693,-10.998,-13.502,-13.072,-15.119,-14.783Z" /></g><g id="i32"><path fill="#9b9b9d" d="M-30.421,-24.038C-30.614,-25.005,-30.717,-25.499,-30.729,-25.523C-30.776,-25.652,-30.858,-25.717,-30.975,-25.717C-32.194,-25.717,-33.371,-25.494,-34.508,-25.049C-35.774,-24.557,-36.735,-23.877,-37.391,-23.01C-38.129,-22.049,-38.498,-20.531,-38.498,-18.457C-38.498,-17.988,-38.48,-17.379,-38.445,-16.629C-39.933,-16.547,-40.678,-16.383,-40.678,-16.137C-40.678,-15.879,-40.667,-15.495,-40.643,-14.985C-40.62,-14.475,-40.607,-14.092,-40.607,-13.834C-40.607,-13.435,-40.59,-13.219,-40.555,-13.184C-40.508,-13.114,-40.097,-13.084,-39.324,-13.096C-38.609,-13.108,-38.252,-12.955,-38.252,-12.639C-38.252,-12.639,-38.252,-0.545,-38.252,-0.545C-38.252,-0.182,-38.1,0,-37.795,0C-37.795,0,-34.578,0,-34.578,0C-34.344,0,-34.227,-0.159,-34.227,-0.475C-34.227,-1.295,-34.255,-2.537,-34.314,-4.201C-34.373,-5.865,-34.402,-7.108,-34.402,-7.928C-34.402,-7.928,-34.402,-13.184,-34.402,-13.184C-34.004,-13.184,-33.389,-13.163,-32.557,-13.122C-31.725,-13.081,-31.103,-13.061,-30.693,-13.061C-30.459,-13.061,-30.342,-13.172,-30.342,-13.395C-30.342,-13.711,-30.354,-14.195,-30.377,-14.845C-30.401,-15.495,-30.412,-15.984,-30.412,-16.312C-30.412,-16.523,-30.553,-16.629,-30.834,-16.629C-31.256,-16.629,-31.883,-16.64,-32.715,-16.664C-33.547,-16.687,-34.156,-16.699,-34.543,-16.699C-34.543,-19.23,-34.256,-20.807,-33.682,-21.428C-33.33,-21.803,-32.82,-22.037,-32.152,-22.131C-31.59,-22.178,-31.021,-22.23,-30.447,-22.289C-30.236,-22.312,-30.131,-22.394,-30.131,-22.535C-30.131,-22.57,-30.228,-23.071,-30.421,-24.038Z" /></g><g id="i16"><path fill="#9b9b9d" fill-rule="evenodd" d="M-56.762,-5.836C-57.559,-4.828,-58.578,-4.324,-59.82,-4.324C-61.074,-4.324,-62.094,-4.828,-62.879,-5.836C-63.606,-6.762,-63.969,-7.864,-63.969,-9.141C-63.969,-10.442,-63.611,-11.549,-62.896,-12.463C-62.111,-13.471,-61.086,-13.975,-59.82,-13.975C-58.543,-13.975,-57.512,-13.476,-56.727,-12.48C-56.012,-11.566,-55.654,-10.453,-55.654,-9.141C-55.654,-7.864,-56.024,-6.762,-56.762,-5.836ZM-51.682,-16.84C-51.787,-16.887,-52.414,-17.018,-53.562,-17.235C-54.711,-17.452,-55.344,-17.561,-55.461,-17.561C-55.602,-17.561,-55.672,-17.209,-55.672,-16.506C-55.672,-16.342,-55.661,-16.093,-55.637,-15.759C-55.614,-15.425,-55.602,-15.181,-55.602,-15.029C-55.602,-14.818,-55.648,-14.713,-55.742,-14.713C-55.824,-14.713,-55.959,-14.836,-56.146,-15.082C-57.283,-16.57,-58.818,-17.314,-60.752,-17.314C-62.943,-17.314,-64.725,-16.482,-66.096,-14.818C-67.385,-13.259,-68.029,-11.367,-68.029,-9.141C-68.029,-6.95,-67.361,-5.104,-66.025,-3.604C-64.631,-2.045,-62.85,-1.266,-60.682,-1.266C-58.678,-1.266,-57.026,-2.057,-55.725,-3.639C-55.678,-2.783,-55.654,-2.232,-55.654,-1.986C-55.654,-0.873,-56.094,-0.024,-56.973,0.562C-57.735,1.078,-58.695,1.336,-59.855,1.336C-61.625,1.336,-63.388,0.832,-65.146,-0.176C-65.24,-0.235,-65.316,-0.264,-65.375,-0.264C-65.504,-0.264,-65.586,-0.164,-65.621,0.035C-65.973,1.898,-66.148,2.766,-66.148,2.637C-66.148,2.754,-66.02,2.895,-65.762,3.059C-64.121,4.067,-61.971,4.57,-59.311,4.57C-56.557,4.57,-54.553,3.867,-53.299,2.461C-52.104,1.137,-51.506,-0.92,-51.506,-3.709C-51.506,-5.115,-51.495,-7.227,-51.471,-10.046C-51.448,-12.864,-51.436,-14.977,-51.436,-16.383C-51.436,-16.629,-51.518,-16.781,-51.682,-16.84Z" /></g><g id="i17"><path fill="#9b9b9d" d="M-70.297,-3.867C-70.321,-5.425,-70.332,-6.598,-70.332,-7.383C-70.332,-7.758,-70.324,-8.32,-70.306,-9.07C-70.288,-9.82,-70.279,-10.377,-70.279,-10.74C-70.279,-12.838,-70.578,-14.355,-71.176,-15.293C-71.985,-16.57,-73.49,-17.209,-75.693,-17.209C-76.842,-17.209,-78.032,-16.834,-79.262,-16.084C-80.258,-15.369,-81.061,-14.771,-81.67,-14.291C-81.881,-15.029,-82.015,-15.761,-82.074,-16.488C-82.098,-16.675,-82.145,-16.77,-82.215,-16.77C-82.274,-16.77,-82.932,-16.667,-84.192,-16.462C-85.452,-16.257,-86.123,-16.149,-86.205,-16.137C-86.357,-16.09,-86.434,-16.008,-86.434,-15.891C-86.434,-15.844,-86.416,-15.767,-86.381,-15.662C-85.854,-13.553,-85.59,-11.25,-85.59,-8.754C-85.59,-7.816,-85.605,-6.421,-85.634,-4.57C-85.663,-2.718,-85.678,-1.33,-85.678,-0.404C-85.678,-0.134,-85.555,0,-85.309,0C-84.934,0,-84.371,0.006,-83.621,0.018C-82.871,0.03,-82.309,0.035,-81.934,0.035C-81.712,0.035,-81.6,-0.111,-81.6,-0.404C-81.6,-0.404,-81.6,-10.951,-81.6,-10.951C-81.6,-11.49,-81.049,-12.105,-79.947,-12.797C-78.904,-13.453,-78.09,-13.781,-77.504,-13.781C-76.238,-13.781,-75.371,-13.453,-74.902,-12.797C-74.515,-12.246,-74.322,-11.303,-74.322,-9.967C-74.322,-9.498,-74.317,-8.798,-74.305,-7.866C-74.293,-6.934,-74.287,-6.235,-74.287,-5.766C-74.287,-5.18,-74.305,-4.301,-74.34,-3.129C-74.375,-1.957,-74.393,-1.084,-74.393,-0.51C-74.393,-0.17,-74.287,0,-74.076,0C-73.689,0,-73.113,0.006,-72.345,0.018C-71.578,0.03,-71,0.035,-70.613,0.035C-70.379,0.035,-70.262,-0.094,-70.262,-0.352C-70.262,-1.137,-70.274,-2.308,-70.297,-3.867Z" /></g><g id="i23"><path fill="#9b9b9d" fill-rule="evenodd" d="M-89.527,-16.594C-89.75,-16.594,-90.082,-16.565,-90.521,-16.506C-90.96,-16.447,-91.292,-16.418,-91.514,-16.418C-91.737,-16.418,-92.068,-16.447,-92.507,-16.506C-92.946,-16.565,-93.271,-16.594,-93.482,-16.594C-93.728,-16.594,-93.852,-16.494,-93.852,-16.295C-93.852,-15.381,-93.784,-14.01,-93.649,-12.182C-93.514,-10.354,-93.447,-8.982,-93.447,-8.068C-93.447,-7.248,-93.468,-6.026,-93.509,-4.403C-93.55,-2.78,-93.57,-1.565,-93.57,-0.756C-93.57,-0.275,-93.447,-0.035,-93.201,-0.035C-93.201,-0.035,-89.773,-0.035,-89.773,-0.035C-89.562,-0.035,-89.457,-0.158,-89.457,-0.404C-89.457,-1.248,-89.475,-2.523,-89.51,-4.228C-89.545,-5.933,-89.562,-7.212,-89.562,-8.068C-89.562,-8.982,-89.508,-10.351,-89.396,-12.173C-89.285,-13.995,-89.229,-15.357,-89.229,-16.26C-89.229,-16.482,-89.328,-16.594,-89.527,-16.594ZM-89.817,-22.605C-90.292,-23.015,-90.858,-23.221,-91.514,-23.221C-92.17,-23.221,-92.732,-23.021,-93.201,-22.623C-93.705,-22.201,-93.957,-21.667,-93.957,-21.023C-93.957,-19.582,-93.143,-18.861,-91.514,-18.861C-89.909,-18.861,-89.105,-19.582,-89.105,-21.023C-89.105,-21.667,-89.342,-22.195,-89.817,-22.605Z" /></g><g id="i33"><path fill="#9b9b9d" fill-rule="evenodd" d="M-102.113,-8.402C-103.074,-7.886,-104.235,-7.629,-105.594,-7.629C-106.942,-7.629,-108.09,-7.717,-109.039,-7.893C-109.039,-7.893,-109.039,-10.512,-109.039,-10.512C-107.012,-12.668,-105.189,-13.746,-103.572,-13.746C-101.404,-13.746,-100.32,-12.908,-100.32,-11.232C-100.32,-9.99,-100.918,-9.046,-102.113,-8.402ZM-97.877,-16.049C-98.979,-16.939,-100.397,-17.385,-102.131,-17.385C-103.912,-17.385,-105.787,-16.623,-107.756,-15.1C-108.318,-14.643,-108.74,-14.296,-109.021,-14.062C-109.126,-14.062,-109.18,-14.186,-109.18,-14.432C-109.18,-14.432,-109.18,-18.967,-109.18,-18.967C-109.18,-19.6,-109.151,-20.543,-109.092,-21.797C-109.033,-23.051,-109.004,-23.994,-109.004,-24.627C-109.004,-24.908,-109.086,-25.049,-109.25,-25.049C-109.508,-25.049,-109.848,-25.02,-110.27,-24.961C-110.797,-24.891,-111.143,-24.85,-111.307,-24.838C-112.092,-24.803,-112.677,-24.78,-113.064,-24.768C-113.287,-24.744,-113.398,-24.627,-113.398,-24.416C-113.398,-22.986,-113.343,-20.848,-113.231,-18C-113.12,-15.152,-113.064,-13.014,-113.064,-11.584C-113.064,-11.584,-113.064,-0.65,-113.064,-0.65C-113.064,-0.193,-112.936,0.035,-112.678,0.035C-112.303,0.035,-111.75,0.041,-111.017,0.053C-110.285,0.065,-109.73,0.07,-109.355,0.07C-109.097,0.07,-108.969,-0.112,-108.969,-0.475C-108.969,-0.475,-108.969,-4.816,-108.969,-4.816C-108.969,-4.816,-108.283,-4.834,-108.283,-4.834C-105.881,-4.869,-104.61,-4.781,-104.469,-4.57C-103.285,-2.777,-102.418,-1.412,-101.867,-0.475C-101.656,-0.123,-101.135,0.053,-100.303,0.053C-99.916,0.053,-99.335,0.035,-98.562,0C-97.39,-0.059,-96.805,-0.176,-96.805,-0.352C-99.149,-3.481,-100.32,-5.343,-100.32,-5.941C-97.496,-6.972,-96.084,-9.012,-96.084,-12.059C-96.084,-13.747,-96.682,-15.076,-97.877,-16.049Z" /></g><g id="i18"><path fill="#9b9b9d" fill-rule="evenodd" d="M-120.869,-4.869C-121.795,-3.779,-122.956,-3.234,-124.35,-3.234C-125.733,-3.234,-126.893,-3.779,-127.83,-4.869C-128.721,-5.9,-129.166,-7.119,-129.166,-8.525C-129.166,-9.955,-128.727,-11.179,-127.848,-12.199C-126.922,-13.254,-125.756,-13.781,-124.35,-13.781C-122.944,-13.781,-121.783,-13.248,-120.869,-12.182C-119.99,-11.174,-119.551,-9.955,-119.551,-8.525C-119.551,-7.119,-119.99,-5.9,-120.869,-4.869ZM-118.268,-14.783C-119.909,-16.541,-121.936,-17.42,-124.35,-17.42C-126.776,-17.42,-128.815,-16.541,-130.467,-14.783C-132.073,-13.06,-132.875,-10.974,-132.875,-8.525C-132.875,-6.076,-132.073,-3.991,-130.467,-2.268C-128.826,-0.487,-126.788,0.404,-124.35,0.404C-121.924,0.404,-119.891,-0.492,-118.25,-2.285C-116.645,-4.019,-115.842,-6.112,-115.842,-8.561C-115.842,-10.998,-116.651,-13.072,-118.268,-14.783Z" /></g><g id="i18"><path fill="#9b9b9d" fill-rule="evenodd" d="M-139.273,-4.869C-140.199,-3.779,-141.36,-3.234,-142.754,-3.234C-144.137,-3.234,-145.297,-3.779,-146.234,-4.869C-147.125,-5.9,-147.57,-7.119,-147.57,-8.525C-147.57,-9.955,-147.131,-11.179,-146.252,-12.199C-145.326,-13.254,-144.16,-13.781,-142.754,-13.781C-141.348,-13.781,-140.187,-13.248,-139.273,-12.182C-138.394,-11.174,-137.955,-9.955,-137.955,-8.525C-137.955,-7.119,-138.394,-5.9,-139.273,-4.869ZM-136.672,-14.783C-138.313,-16.541,-140.34,-17.42,-142.754,-17.42C-145.18,-17.42,-147.219,-16.541,-148.871,-14.783C-150.477,-13.06,-151.279,-10.974,-151.279,-8.525C-151.279,-6.076,-150.477,-3.991,-148.871,-2.268C-147.23,-0.487,-145.192,0.404,-142.754,0.404C-140.328,0.404,-138.295,-0.492,-136.654,-2.285C-135.049,-4.019,-134.246,-6.112,-134.246,-8.561C-134.246,-10.998,-135.055,-13.072,-136.672,-14.783Z" /></g><g id="i34"><path fill="#9b9b9d" d="M-153.951,-24.662C-154.162,-24.662,-154.485,-24.644,-154.918,-24.609C-155.352,-24.574,-155.68,-24.557,-155.902,-24.557C-156.113,-24.557,-156.43,-24.574,-156.852,-24.609C-157.274,-24.644,-157.59,-24.662,-157.801,-24.662C-158.047,-24.662,-158.17,-24.545,-158.17,-24.311C-158.17,-23.057,-158.108,-21.161,-157.985,-18.624C-157.862,-16.087,-157.801,-14.186,-157.801,-12.92C-157.801,-11.525,-157.813,-9.436,-157.836,-6.653C-157.86,-3.87,-157.871,-1.787,-157.871,-0.404C-157.871,-0.134,-157.766,0,-157.555,0C-157.555,0,-154.197,0,-154.197,0C-154.01,0,-153.916,-0.134,-153.916,-0.404C-153.916,-1.787,-153.939,-3.87,-153.986,-6.653C-154.033,-9.436,-154.057,-11.525,-154.057,-12.92C-154.057,-16.049,-153.928,-19.793,-153.67,-24.152C-153.67,-24.152,-153.652,-24.381,-153.652,-24.381C-153.64,-24.568,-153.74,-24.662,-153.951,-24.662Z" /></g><g id="i22"><path fill="#9b9b9d" fill-rule="evenodd" d="M-174.764,-10.16C-177.178,-9.808,-179.252,-9.633,-180.986,-9.633C-181.408,-9.633,-181.619,-9.756,-181.619,-10.002C-181.619,-11.08,-181.2,-12.053,-180.362,-12.92C-179.524,-13.787,-178.566,-14.221,-177.488,-14.221C-176.527,-14.221,-175.664,-13.846,-174.896,-13.096C-174.129,-12.346,-173.744,-11.485,-173.744,-10.512C-173.744,-10.371,-174.084,-10.254,-174.764,-10.16ZM-171.723,-15.17C-173.2,-16.787,-175.039,-17.596,-177.242,-17.596C-179.609,-17.596,-181.607,-16.664,-183.236,-14.801C-184.783,-13.008,-185.557,-10.904,-185.557,-8.49C-185.557,-5.783,-184.748,-3.618,-183.131,-1.995C-181.514,-0.372,-179.346,0.439,-176.627,0.439C-173.932,0.439,-171.723,-0.475,-170,-2.303C-169.813,-2.502,-169.719,-2.637,-169.719,-2.707C-169.719,-2.766,-169.924,-3.19,-170.334,-3.981C-170.744,-4.772,-170.964,-5.179,-170.993,-5.203C-171.022,-5.226,-171.084,-5.238,-171.178,-5.238C-171.366,-5.086,-171.553,-4.933,-171.74,-4.781C-173.287,-3.586,-174.987,-2.988,-176.838,-2.988C-177.916,-2.988,-178.924,-3.333,-179.861,-4.025C-180.845,-4.751,-181.414,-5.631,-181.566,-6.662C-174.816,-7.166,-171.19,-7.511,-170.686,-7.699C-169.936,-7.992,-169.561,-8.572,-169.561,-9.439C-169.561,-11.689,-170.282,-13.6,-171.723,-15.17Z" /></g><g id="i19"><path fill="#9b9b9d" d="M-187.754,-16.875C-188.469,-16.875,-189.055,-16.805,-189.512,-16.664C-190.063,-16.512,-190.602,-16.277,-191.129,-15.961C-191.61,-15.656,-192.09,-15.352,-192.57,-15.047C-192.605,-15.023,-192.635,-15.012,-192.658,-15.012C-192.81,-15.012,-192.916,-15.357,-192.975,-16.049C-193.034,-16.74,-193.157,-17.086,-193.344,-17.086C-193.25,-17.086,-193.836,-16.968,-195.102,-16.734C-195.887,-16.64,-196.497,-16.57,-196.93,-16.523C-197.082,-16.464,-197.158,-16.366,-197.158,-16.225C-197.158,-16.178,-197.147,-16.108,-197.123,-16.014C-196.584,-14.256,-196.314,-11.929,-196.314,-9.035C-196.314,-8.074,-196.329,-6.639,-196.358,-4.729C-196.387,-2.819,-196.402,-1.388,-196.402,-0.439C-196.402,-0.146,-196.268,0,-195.998,0C-195.635,0,-195.084,0.006,-194.346,0.018C-193.608,0.03,-193.056,0.035,-192.693,0.035C-192.424,0.035,-192.289,-0.123,-192.289,-0.439C-192.289,-1.095,-192.315,-2.092,-192.368,-3.428C-192.421,-4.764,-192.447,-5.76,-192.447,-6.416C-192.447,-6.416,-192.447,-8.35,-192.447,-8.35C-192.447,-9.944,-192.324,-10.992,-192.078,-11.496C-191.668,-12.328,-190.725,-12.744,-189.248,-12.744C-188.99,-12.744,-188.612,-12.718,-188.114,-12.665C-187.616,-12.612,-187.244,-12.586,-186.998,-12.586C-186.799,-12.586,-186.681,-12.72,-186.646,-12.99C-186.47,-14.045,-186.383,-15.217,-186.383,-16.506C-186.383,-16.752,-186.84,-16.875,-187.754,-16.875Z" /></g><g id="i35"><path fill="#9b9b9d" fill-rule="evenodd" d="M-205.086,-4.904C-206.012,-3.791,-207.16,-3.234,-208.531,-3.234C-209.937,-3.234,-211.11,-3.779,-212.047,-4.869C-212.95,-5.912,-213.4,-7.143,-213.4,-8.561C-213.4,-9.991,-212.95,-11.232,-212.047,-12.287C-211.11,-13.388,-209.937,-13.939,-208.531,-13.939C-207.125,-13.939,-205.971,-13.383,-205.068,-12.27C-204.213,-11.239,-203.785,-10.002,-203.785,-8.561C-203.785,-7.166,-204.219,-5.947,-205.086,-4.904ZM-200.744,-16.471C-201.611,-16.647,-202.204,-16.734,-202.52,-16.734C-202.719,-16.734,-202.883,-16.365,-203.012,-15.627C-203.141,-14.889,-203.241,-14.52,-203.311,-14.52C-203.346,-14.52,-203.381,-14.537,-203.416,-14.572C-203.838,-15.017,-204.149,-15.357,-204.348,-15.592C-205.684,-16.834,-207.248,-17.455,-209.041,-17.455C-211.584,-17.455,-213.635,-16.57,-215.193,-14.801C-216.681,-13.102,-217.426,-10.952,-217.426,-8.35C-217.426,-6.041,-216.688,-4.019,-215.211,-2.285C-213.653,-0.468,-211.737,0.439,-209.463,0.439C-208.537,0.439,-207.612,0.205,-206.686,-0.264C-206.088,-0.557,-205.444,-0.985,-204.752,-1.547C-204.19,-2.004,-203.873,-2.232,-203.803,-2.232C-203.698,-2.232,-203.586,-1.822,-203.469,-1.002C-203.352,-0.182,-203.182,0.229,-202.959,0.229C-202.643,0.229,-202.159,0.19,-201.509,0.114C-200.859,0.038,-200.372,0,-200.05,0C-199.728,0,-199.572,-0.17,-199.584,-0.51C-199.584,-0.51,-199.602,-0.756,-199.602,-0.756C-199.895,-5.9,-200.041,-8.531,-200.041,-8.648C-200.041,-10.593,-199.812,-12.908,-199.355,-15.592C-199.32,-15.756,-199.303,-15.861,-199.303,-15.908C-199.303,-16.072,-199.783,-16.26,-200.744,-16.471Z" /></g><g id="i36"><path fill="#9b9b9d" d="M-229.484,-16.559C-229.484,-16.559,-232.385,-16.559,-232.385,-16.559C-232.866,-16.559,-233.105,-16.271,-233.105,-15.697C-233.105,-10.388,-233.134,-7.295,-233.193,-6.416C-233.228,-5.713,-233.78,-4.981,-234.846,-4.219C-235.854,-3.492,-236.727,-3.129,-237.465,-3.129C-239.199,-3.129,-240.318,-3.761,-240.822,-5.027C-241.115,-5.73,-241.262,-7.107,-241.262,-9.158C-241.262,-10.002,-241.244,-10.776,-241.209,-11.479C-241.197,-11.948,-241.109,-12.75,-240.945,-13.887C-240.793,-14.953,-240.717,-15.715,-240.717,-16.172C-240.717,-16.43,-240.834,-16.559,-241.068,-16.559C-241.408,-16.559,-241.918,-16.564,-242.598,-16.576C-243.278,-16.588,-243.787,-16.594,-244.127,-16.594C-244.408,-16.594,-244.602,-16.365,-244.707,-15.908C-245.141,-14.021,-245.357,-11.719,-245.357,-9C-245.357,-5.988,-245.1,-3.902,-244.584,-2.742C-243.752,-0.867,-242.041,0.07,-239.451,0.07C-237.541,0.07,-235.607,-0.78,-233.65,-2.479C-233.533,-2.584,-233.446,-2.637,-233.387,-2.637C-233.282,-2.637,-233.214,-2.197,-233.185,-1.318C-233.156,-0.439,-233.071,0,-232.93,0C-230.645,0,-229.455,-0.011,-229.361,-0.035C-229.139,-0.105,-229.027,-0.257,-229.027,-0.492C-229.027,-1.347,-229.053,-2.628,-229.106,-4.333C-229.159,-6.038,-229.186,-7.318,-229.186,-8.174C-229.186,-9.041,-229.15,-10.338,-229.08,-12.067C-229.01,-13.795,-228.975,-15.087,-228.975,-15.943C-228.975,-16.353,-229.144,-16.559,-229.484,-16.559Z" /></g><g id="i18"><path fill="#9b9b9d" fill-rule="evenodd" d="M-252.758,-4.869C-253.684,-3.779,-254.844,-3.234,-256.238,-3.234C-257.621,-3.234,-258.782,-3.779,-259.719,-4.869C-260.61,-5.9,-261.055,-7.119,-261.055,-8.525C-261.055,-9.955,-260.615,-11.179,-259.736,-12.199C-258.81,-13.254,-257.644,-13.781,-256.238,-13.781C-254.832,-13.781,-253.672,-13.248,-252.758,-12.182C-251.879,-11.174,-251.439,-9.955,-251.439,-8.525C-251.439,-7.119,-251.879,-5.9,-252.758,-4.869ZM-250.156,-14.783C-251.797,-16.541,-253.824,-17.42,-256.238,-17.42C-258.664,-17.42,-260.703,-16.541,-262.355,-14.783C-263.961,-13.06,-264.764,-10.974,-264.764,-8.525C-264.764,-6.076,-263.961,-3.991,-262.355,-2.268C-260.714,-0.487,-258.676,0.404,-256.238,0.404C-253.812,0.404,-251.78,-0.492,-250.139,-2.285C-248.534,-4.019,-247.73,-6.112,-247.73,-8.561C-247.73,-10.998,-248.539,-13.072,-250.156,-14.783Z" /></g><g id="i37"><path fill="#9b9b9d" d="M-266.521,-16.506C-266.896,-16.506,-267.462,-16.48,-268.218,-16.427C-268.974,-16.374,-269.539,-16.348,-269.914,-16.348C-270.102,-16.348,-270.195,-16.201,-270.195,-15.908C-270.195,-15.58,-270.16,-15.085,-270.09,-14.423C-270.02,-13.761,-269.984,-13.26,-269.984,-12.92C-269.984,-11.373,-270.031,-10.307,-270.125,-9.721C-270.195,-9.311,-270.764,-8.235,-271.83,-6.495C-272.896,-4.755,-273.53,-3.885,-273.729,-3.885C-274.01,-3.885,-274.754,-4.769,-275.961,-6.539C-277.168,-8.308,-277.807,-9.416,-277.877,-9.861C-277.971,-10.564,-278.018,-11.631,-278.018,-13.061C-278.018,-13.389,-278,-13.881,-277.965,-14.537C-277.93,-15.193,-277.912,-15.686,-277.912,-16.014C-277.912,-16.26,-278.006,-16.383,-278.193,-16.383C-278.568,-16.383,-279.122,-16.406,-279.854,-16.453C-280.587,-16.5,-281.141,-16.523,-281.516,-16.523C-281.797,-16.523,-281.938,-16.395,-281.938,-16.137C-281.938,-15.68,-281.943,-15.002,-281.955,-14.106C-281.967,-13.21,-281.973,-12.539,-281.973,-12.094C-281.973,-10.277,-281.891,-9.128,-281.727,-8.648C-281.516,-8.039,-280.514,-6.592,-278.721,-4.307C-277.022,-2.151,-276.172,-0.914,-276.172,-0.598C-276.172,-0.363,-276.385,0.093,-276.813,0.773C-277.241,1.453,-277.56,1.857,-277.771,1.986C-278.392,2.361,-279.36,2.549,-280.672,2.549C-281.293,2.549,-281.604,2.678,-281.604,2.936C-281.604,3.088,-281.449,3.557,-281.138,4.342C-280.828,5.127,-280.628,5.551,-280.54,5.616C-280.452,5.68,-280.256,5.713,-279.951,5.713C-277.396,5.713,-275.885,5.502,-275.416,5.08C-274.9,4.599,-273.269,2.323,-270.521,-1.749C-267.773,-5.821,-266.322,-8.121,-266.17,-8.648C-266.053,-9.058,-265.994,-10.253,-265.994,-12.234C-265.994,-15.082,-266.169,-16.506,-266.521,-16.506Z" /></g><g id="i22"><path fill="#9b9b9d" fill-rule="evenodd" d="M-297.459,-10.16C-299.873,-9.808,-301.948,-9.633,-303.682,-9.633C-304.104,-9.633,-304.314,-9.756,-304.314,-10.002C-304.314,-11.08,-303.896,-12.053,-303.058,-12.92C-302.22,-13.787,-301.262,-14.221,-300.184,-14.221C-299.223,-14.221,-298.359,-13.846,-297.591,-13.096C-296.824,-12.346,-296.439,-11.485,-296.439,-10.512C-296.439,-10.371,-296.779,-10.254,-297.459,-10.16ZM-294.418,-15.17C-295.895,-16.787,-297.735,-17.596,-299.938,-17.596C-302.305,-17.596,-304.303,-16.664,-305.932,-14.801C-307.479,-13.008,-308.252,-10.904,-308.252,-8.49C-308.252,-5.783,-307.443,-3.618,-305.826,-1.995C-304.209,-0.372,-302.041,0.439,-299.322,0.439C-296.627,0.439,-294.418,-0.475,-292.695,-2.303C-292.508,-2.502,-292.414,-2.637,-292.414,-2.707C-292.414,-2.766,-292.619,-3.19,-293.029,-3.981C-293.439,-4.772,-293.659,-5.179,-293.688,-5.203C-293.717,-5.226,-293.779,-5.238,-293.873,-5.238C-294.061,-5.086,-294.249,-4.933,-294.436,-4.781C-295.983,-3.586,-297.682,-2.988,-299.533,-2.988C-300.611,-2.988,-301.62,-3.333,-302.557,-4.025C-303.541,-4.751,-304.11,-5.631,-304.262,-6.662C-297.512,-7.166,-293.885,-7.511,-293.381,-7.699C-292.631,-7.992,-292.256,-8.572,-292.256,-9.439C-292.256,-11.689,-292.977,-13.6,-294.418,-15.17Z" /></g><g id="i16"><path fill="#9b9b9d" fill-rule="evenodd" d="M-315.705,-5.836C-316.502,-4.828,-317.522,-4.324,-318.764,-4.324C-320.018,-4.324,-321.037,-4.828,-321.822,-5.836C-322.549,-6.762,-322.912,-7.864,-322.912,-9.141C-322.912,-10.442,-322.555,-11.549,-321.84,-12.463C-321.055,-13.471,-320.03,-13.975,-318.764,-13.975C-317.487,-13.975,-316.455,-13.476,-315.67,-12.48C-314.955,-11.566,-314.598,-10.453,-314.598,-9.141C-314.598,-7.864,-314.967,-6.762,-315.705,-5.836ZM-310.625,-16.84C-310.73,-16.887,-311.358,-17.018,-312.506,-17.235C-313.655,-17.452,-314.287,-17.561,-314.404,-17.561C-314.545,-17.561,-314.615,-17.209,-314.615,-16.506C-314.615,-16.342,-314.604,-16.093,-314.58,-15.759C-314.557,-15.425,-314.545,-15.181,-314.545,-15.029C-314.545,-14.818,-314.592,-14.713,-314.686,-14.713C-314.768,-14.713,-314.903,-14.836,-315.09,-15.082C-316.227,-16.57,-317.761,-17.314,-319.695,-17.314C-321.886,-17.314,-323.668,-16.482,-325.039,-14.818C-326.328,-13.259,-326.973,-11.367,-326.973,-9.141C-326.973,-6.95,-326.305,-5.104,-324.969,-3.604C-323.575,-2.045,-321.793,-1.266,-319.625,-1.266C-317.621,-1.266,-315.969,-2.057,-314.668,-3.639C-314.621,-2.783,-314.598,-2.232,-314.598,-1.986C-314.598,-0.873,-315.037,-0.024,-315.916,0.562C-316.678,1.078,-317.639,1.336,-318.799,1.336C-320.569,1.336,-322.332,0.832,-324.09,-0.176C-324.184,-0.235,-324.259,-0.264,-324.318,-0.264C-324.447,-0.264,-324.529,-0.164,-324.564,0.035C-324.916,1.898,-325.092,2.766,-325.092,2.637C-325.092,2.754,-324.963,2.895,-324.705,3.059C-323.064,4.067,-320.914,4.57,-318.254,4.57C-315.5,4.57,-313.496,3.867,-312.242,2.461C-311.047,1.137,-310.449,-0.92,-310.449,-3.709C-310.449,-5.115,-310.438,-7.227,-310.414,-10.046C-310.391,-12.864,-310.379,-14.977,-310.379,-16.383C-310.379,-16.629,-310.461,-16.781,-310.625,-16.84Z" /></g><g id="i35"><path fill="#9b9b9d" fill-rule="evenodd" d="M-334.514,-4.904C-335.44,-3.791,-336.588,-3.234,-337.959,-3.234C-339.365,-3.234,-340.538,-3.779,-341.475,-4.869C-342.378,-5.912,-342.828,-7.143,-342.828,-8.561C-342.828,-9.991,-342.378,-11.232,-341.475,-12.287C-340.538,-13.388,-339.365,-13.939,-337.959,-13.939C-336.553,-13.939,-335.399,-13.383,-334.496,-12.27C-333.641,-11.239,-333.213,-10.002,-333.213,-8.561C-333.213,-7.166,-333.647,-5.947,-334.514,-4.904ZM-330.172,-16.471C-331.039,-16.647,-331.631,-16.734,-331.947,-16.734C-332.146,-16.734,-332.31,-16.365,-332.439,-15.627C-332.568,-14.889,-332.668,-14.52,-332.738,-14.52C-332.773,-14.52,-332.809,-14.537,-332.844,-14.572C-333.266,-15.017,-333.576,-15.357,-333.775,-15.592C-335.111,-16.834,-336.676,-17.455,-338.469,-17.455C-341.012,-17.455,-343.063,-16.57,-344.621,-14.801C-346.109,-13.102,-346.854,-10.952,-346.854,-8.35C-346.854,-6.041,-346.116,-4.019,-344.639,-2.285C-343.081,-0.468,-341.165,0.439,-338.891,0.439C-337.965,0.439,-337.039,0.205,-336.113,-0.264C-335.515,-0.557,-334.872,-0.985,-334.18,-1.547C-333.618,-2.004,-333.3,-2.232,-333.23,-2.232C-333.125,-2.232,-333.013,-1.822,-332.896,-1.002C-332.779,-0.182,-332.61,0.229,-332.387,0.229C-332.071,0.229,-331.587,0.19,-330.937,0.114C-330.287,0.038,-329.8,0,-329.478,0C-329.156,0,-329,-0.17,-329.012,-0.51C-329.012,-0.51,-329.029,-0.756,-329.029,-0.756C-329.322,-5.9,-329.469,-8.531,-329.469,-8.648C-329.469,-10.593,-329.24,-12.908,-328.783,-15.592C-328.748,-15.756,-328.73,-15.861,-328.73,-15.908C-328.73,-16.072,-329.211,-16.26,-330.172,-16.471Z" /></g><g id="i29"><path fill="#9b9b9d" fill-rule="evenodd" d="M-353.92,-4.834C-354.834,-3.65,-355.959,-3.059,-357.295,-3.059C-358.69,-3.059,-359.838,-3.627,-360.74,-4.764C-361.56,-5.819,-361.971,-7.06,-361.971,-8.49C-361.971,-9.896,-361.572,-11.127,-360.775,-12.182C-359.908,-13.354,-358.796,-13.939,-357.436,-13.939C-356.053,-13.939,-354.899,-13.371,-353.973,-12.234C-353.094,-11.168,-352.654,-9.931,-352.654,-8.525C-352.654,-7.165,-353.076,-5.935,-353.92,-4.834ZM-350.844,-14.625C-352.438,-16.441,-354.395,-17.35,-356.715,-17.35C-358.391,-17.35,-360.048,-16.512,-361.689,-14.836C-361.794,-14.719,-361.889,-14.637,-361.971,-14.59C-362.041,-14.684,-362.076,-14.777,-362.076,-14.871C-362.1,-15.328,-362.129,-15.791,-362.164,-16.26C-362.223,-16.963,-362.352,-17.314,-362.551,-17.314C-362.692,-17.314,-363.336,-17.209,-364.484,-16.998C-365.34,-16.893,-365.991,-16.828,-366.436,-16.805C-366.553,-16.77,-366.611,-16.688,-366.611,-16.559C-366.611,-16.512,-366.6,-16.418,-366.576,-16.277C-366.224,-13.863,-366.049,-11.279,-366.049,-8.525C-366.049,-7.025,-366.061,-4.775,-366.084,-1.775C-366.108,1.225,-366.119,3.475,-366.119,4.975C-366.119,5.244,-365.985,5.397,-365.715,5.432C-365.387,5.479,-364.321,5.502,-362.516,5.502C-362.247,5.502,-362.111,5.314,-362.111,4.939C-362.111,4.939,-362.094,-0.018,-362.094,-0.018C-362.094,-1.26,-362.088,-1.916,-362.076,-1.986C-362.053,-2.138,-362.006,-2.233,-361.936,-2.268C-361.444,-1.799,-360.951,-1.336,-360.459,-0.879C-359.369,0.023,-358.098,0.475,-356.645,0.475C-354.313,0.475,-352.361,-0.445,-350.791,-2.285C-349.291,-4.031,-348.541,-6.088,-348.541,-8.455C-348.541,-10.822,-349.309,-12.879,-350.844,-14.625Z" /></g><g id="i38"><path fill="#9b9b9d" fill-rule="evenodd" d="M-383.908,-4.799C-384.822,-3.686,-385.983,-3.129,-387.389,-3.129C-388.784,-3.129,-389.955,-3.679,-390.904,-4.781C-391.83,-5.824,-392.293,-7.049,-392.293,-8.455C-392.293,-9.932,-391.848,-11.197,-390.957,-12.252C-390.02,-13.377,-388.83,-13.939,-387.389,-13.939C-386.018,-13.939,-384.869,-13.371,-383.943,-12.234C-383.076,-11.168,-382.643,-9.931,-382.643,-8.525C-382.643,-7.084,-383.064,-5.842,-383.908,-4.799ZM-378.547,-24.891C-378.969,-24.891,-379.608,-24.852,-380.463,-24.776C-381.319,-24.7,-381.963,-24.662,-382.396,-24.662C-382.584,-24.662,-382.678,-24.521,-382.678,-24.24C-382.678,-23.841,-382.66,-23.25,-382.625,-22.465C-382.59,-21.68,-382.572,-21.094,-382.572,-20.707C-382.572,-20.707,-382.572,-15.012,-382.572,-15.012C-382.572,-14.883,-382.619,-14.801,-382.713,-14.766C-383.205,-15.211,-383.703,-15.65,-384.207,-16.084C-385.309,-16.951,-386.597,-17.385,-388.074,-17.385C-390.523,-17.385,-392.51,-16.494,-394.033,-14.713C-395.486,-13.014,-396.213,-10.916,-396.213,-8.42C-396.213,-6.018,-395.492,-3.967,-394.051,-2.268C-392.528,-0.463,-390.582,0.439,-388.215,0.439C-386.129,0.439,-384.284,-0.428,-382.678,-2.162C-382.573,-2.279,-382.484,-2.356,-382.414,-2.391C-382.355,-2.379,-382.311,-1.965,-382.282,-1.151C-382.253,-0.336,-382.156,0.07,-381.992,0.07C-381.816,0.07,-381.559,0.053,-381.219,0.018C-380.879,-0.017,-380.621,-0.035,-380.445,-0.035C-380.48,-0.035,-380.252,-0.017,-379.76,0.018C-379.35,0.041,-379.034,0.041,-378.811,0.018C-378.483,-0.017,-378.324,-0.094,-378.336,-0.211C-378.336,-0.211,-378.354,-0.439,-378.354,-0.439C-378.553,-2.818,-378.652,-6.322,-378.652,-10.951C-378.652,-12.451,-378.585,-14.71,-378.45,-17.728C-378.315,-20.745,-378.248,-23.009,-378.248,-24.521C-378.248,-24.767,-378.348,-24.891,-378.547,-24.891Z" /></g><g id="i17"><path fill="#9b9b9d" d="M-398.516,-3.867C-398.54,-5.425,-398.551,-6.598,-398.551,-7.383C-398.551,-7.758,-398.542,-8.32,-398.524,-9.07C-398.506,-9.82,-398.498,-10.377,-398.498,-10.74C-398.498,-12.838,-398.797,-14.355,-399.395,-15.293C-400.204,-16.57,-401.709,-17.209,-403.912,-17.209C-405.061,-17.209,-406.25,-16.834,-407.48,-16.084C-408.476,-15.369,-409.28,-14.771,-409.889,-14.291C-410.1,-15.029,-410.234,-15.761,-410.293,-16.488C-410.317,-16.675,-410.364,-16.77,-410.434,-16.77C-410.493,-16.77,-411.151,-16.667,-412.411,-16.462C-413.671,-16.257,-414.342,-16.149,-414.424,-16.137C-414.576,-16.09,-414.652,-16.008,-414.652,-15.891C-414.652,-15.844,-414.635,-15.767,-414.6,-15.662C-414.073,-13.553,-413.809,-11.25,-413.809,-8.754C-413.809,-7.816,-413.824,-6.421,-413.853,-4.57C-413.882,-2.718,-413.896,-1.33,-413.896,-0.404C-413.896,-0.134,-413.773,0,-413.527,0C-413.152,0,-412.59,0.006,-411.84,0.018C-411.09,0.03,-410.527,0.035,-410.152,0.035C-409.93,0.035,-409.818,-0.111,-409.818,-0.404C-409.818,-0.404,-409.818,-10.951,-409.818,-10.951C-409.818,-11.49,-409.268,-12.105,-408.166,-12.797C-407.123,-13.453,-406.309,-13.781,-405.723,-13.781C-404.457,-13.781,-403.59,-13.453,-403.121,-12.797C-402.734,-12.246,-402.541,-11.303,-402.541,-9.967C-402.541,-9.498,-402.535,-8.798,-402.523,-7.866C-402.511,-6.934,-402.506,-6.235,-402.506,-5.766C-402.506,-5.18,-402.524,-4.301,-402.559,-3.129C-402.594,-1.957,-402.611,-1.084,-402.611,-0.51C-402.611,-0.17,-402.506,0,-402.295,0C-401.908,0,-401.331,0.006,-400.563,0.018C-399.796,0.03,-399.219,0.035,-398.832,0.035C-398.598,0.035,-398.48,-0.094,-398.48,-0.352C-398.48,-1.137,-398.493,-2.308,-398.516,-3.867Z" /></g><g id="i23"><path fill="#9b9b9d" fill-rule="evenodd" d="M-417.746,-16.594C-417.969,-16.594,-418.3,-16.565,-418.739,-16.506C-419.178,-16.447,-419.51,-16.418,-419.732,-16.418C-419.955,-16.418,-420.287,-16.447,-420.726,-16.506C-421.165,-16.565,-421.49,-16.594,-421.701,-16.594C-421.947,-16.594,-422.07,-16.494,-422.07,-16.295C-422.07,-15.381,-422.003,-14.01,-421.868,-12.182C-421.733,-10.354,-421.666,-8.982,-421.666,-8.068C-421.666,-7.248,-421.687,-6.026,-421.728,-4.403C-421.769,-2.78,-421.789,-1.565,-421.789,-0.756C-421.789,-0.275,-421.666,-0.035,-421.42,-0.035C-421.42,-0.035,-417.992,-0.035,-417.992,-0.035C-417.781,-0.035,-417.676,-0.158,-417.676,-0.404C-417.676,-1.248,-417.694,-2.523,-417.729,-4.228C-417.764,-5.933,-417.781,-7.212,-417.781,-8.068C-417.781,-8.982,-417.726,-10.351,-417.614,-12.173C-417.503,-13.995,-417.447,-15.357,-417.447,-16.26C-417.447,-16.482,-417.547,-16.594,-417.746,-16.594ZM-418.036,-22.605C-418.511,-23.015,-419.076,-23.221,-419.732,-23.221C-420.388,-23.221,-420.951,-23.021,-421.42,-22.623C-421.924,-22.201,-422.176,-21.667,-422.176,-21.023C-422.176,-19.582,-421.361,-18.861,-419.732,-18.861C-418.127,-18.861,-417.324,-19.582,-417.324,-21.023C-417.324,-21.667,-417.561,-22.195,-418.036,-22.605Z" /></g><g id="i32"><path fill="#9b9b9d" d="M-423.696,-24.038C-423.889,-25.005,-423.992,-25.499,-424.004,-25.523C-424.051,-25.652,-424.133,-25.717,-424.25,-25.717C-425.469,-25.717,-426.646,-25.494,-427.783,-25.049C-429.049,-24.557,-430.01,-23.877,-430.666,-23.01C-431.404,-22.049,-431.773,-20.531,-431.773,-18.457C-431.773,-17.988,-431.756,-17.379,-431.721,-16.629C-433.209,-16.547,-433.953,-16.383,-433.953,-16.137C-433.953,-15.879,-433.942,-15.495,-433.918,-14.985C-433.895,-14.475,-433.883,-14.092,-433.883,-13.834C-433.883,-13.435,-433.865,-13.219,-433.83,-13.184C-433.783,-13.114,-433.373,-13.084,-432.6,-13.096C-431.885,-13.108,-431.527,-12.955,-431.527,-12.639C-431.527,-12.639,-431.527,-0.545,-431.527,-0.545C-431.527,-0.182,-431.375,0,-431.07,0C-431.07,0,-427.854,0,-427.854,0C-427.62,0,-427.502,-0.159,-427.502,-0.475C-427.502,-1.295,-427.531,-2.537,-427.59,-4.201C-427.649,-5.865,-427.678,-7.108,-427.678,-7.928C-427.678,-7.928,-427.678,-13.184,-427.678,-13.184C-427.28,-13.184,-426.664,-13.163,-425.832,-13.122C-425,-13.081,-424.379,-13.061,-423.969,-13.061C-423.735,-13.061,-423.617,-13.172,-423.617,-13.395C-423.617,-13.711,-423.629,-14.195,-423.652,-14.845C-423.676,-15.495,-423.688,-15.984,-423.688,-16.312C-423.688,-16.523,-423.828,-16.629,-424.109,-16.629C-424.531,-16.629,-425.158,-16.64,-425.99,-16.664C-426.822,-16.687,-427.431,-16.699,-427.818,-16.699C-427.818,-19.23,-427.531,-20.807,-426.957,-21.428C-426.605,-21.803,-426.096,-22.037,-425.428,-22.131C-424.866,-22.178,-424.297,-22.23,-423.723,-22.289C-423.512,-22.312,-423.406,-22.394,-423.406,-22.535C-423.406,-22.57,-423.503,-23.071,-423.696,-24.038Z" /></g><g id="i21"><path fill="#9b9b9d" d="M-444.201,-3.551C-444.541,-3.551,-445.063,-3.471,-445.766,-3.313C-446.469,-3.155,-447.002,-3.076,-447.365,-3.076C-448.244,-3.076,-448.824,-3.381,-449.105,-3.99C-449.293,-4.388,-449.387,-5.092,-449.387,-6.1C-449.387,-6.1,-449.387,-8.719,-449.387,-8.719C-449.387,-10.219,-449.358,-11.385,-449.299,-12.217C-449.252,-12.885,-449.182,-13.219,-449.088,-13.219C-448.619,-13.219,-447.91,-13.186,-446.961,-13.122C-446.012,-13.057,-445.303,-13.025,-444.834,-13.025C-444.506,-13.025,-444.342,-13.136,-444.342,-13.359C-444.342,-13.535,-444.347,-13.805,-444.359,-14.168C-444.371,-14.531,-444.377,-14.801,-444.377,-14.977C-444.377,-15.129,-444.356,-15.36,-444.315,-15.671C-444.274,-15.981,-444.254,-16.207,-444.254,-16.348C-444.254,-16.489,-444.354,-16.559,-444.553,-16.559C-444.553,-16.559,-448.771,-16.559,-448.771,-16.559C-449.087,-16.559,-449.246,-16.728,-449.246,-17.068C-449.246,-17.584,-449.208,-18.358,-449.132,-19.389C-449.056,-20.42,-449.018,-21.193,-449.018,-21.709C-449.018,-21.931,-449.153,-22.061,-449.422,-22.096C-451.52,-22.459,-452.622,-22.641,-452.727,-22.641C-453.055,-22.641,-453.219,-22.212,-453.219,-21.357C-453.219,-20.876,-453.204,-20.156,-453.175,-19.195C-453.146,-18.234,-453.131,-17.52,-453.131,-17.051C-453.131,-16.594,-453.4,-16.353,-453.939,-16.33C-454.22,-16.318,-454.508,-16.312,-454.801,-16.312C-455.141,-16.253,-455.328,-16.084,-455.363,-15.803C-455.41,-15.428,-455.434,-15.07,-455.434,-14.73C-455.434,-13.827,-455.31,-13.348,-455.064,-13.289C-454.642,-13.277,-454.215,-13.271,-453.781,-13.271C-453.301,-13.236,-453.061,-12.978,-453.061,-12.498C-453.061,-11.502,-453.084,-10.005,-453.131,-8.007C-453.178,-6.009,-453.201,-4.512,-453.201,-3.516C-453.201,-1.031,-451.83,0.211,-449.088,0.211C-447.026,0.211,-445.514,-0.018,-444.553,-0.475C-444.377,-0.557,-444.266,-0.639,-444.219,-0.721C-444.196,-0.768,-444.178,-0.896,-444.166,-1.107C-444.154,-1.271,-444.12,-1.629,-444.061,-2.18C-444.014,-2.625,-443.99,-2.976,-443.99,-3.234C-443.99,-3.445,-444.06,-3.551,-444.201,-3.551Z" /></g><g id="i39"><path fill="#9b9b9d" d="M-458.123,-21.305C-458.85,-21.879,-460.074,-22.711,-461.797,-23.801C-463.672,-24.996,-464.75,-25.594,-465.031,-25.594C-465.219,-25.594,-465.603,-25.333,-466.183,-24.812C-466.763,-24.29,-467.106,-23.924,-467.211,-23.713C-467.141,-23.608,-467.082,-23.537,-467.035,-23.502C-465.711,-22.611,-462.998,-21.205,-458.896,-19.283C-458.955,-19.306,-458.856,-19.318,-458.598,-19.318C-458.539,-19.318,-458.428,-19.567,-458.264,-20.065C-458.1,-20.563,-458.018,-20.866,-458.018,-20.971C-457.995,-21.123,-458.029,-21.235,-458.123,-21.305Z" /></g><g id="i17"><path fill="#9b9b9d" d="M-469.725,-3.867C-469.749,-5.425,-469.76,-6.598,-469.76,-7.383C-469.76,-7.758,-469.751,-8.32,-469.733,-9.07C-469.715,-9.82,-469.707,-10.377,-469.707,-10.74C-469.707,-12.838,-470.006,-14.355,-470.604,-15.293C-471.413,-16.57,-472.918,-17.209,-475.121,-17.209C-476.27,-17.209,-477.459,-16.834,-478.689,-16.084C-479.685,-15.369,-480.489,-14.771,-481.098,-14.291C-481.309,-15.029,-481.443,-15.761,-481.502,-16.488C-481.526,-16.675,-481.573,-16.77,-481.643,-16.77C-481.702,-16.77,-482.36,-16.667,-483.62,-16.462C-484.88,-16.257,-485.551,-16.149,-485.633,-16.137C-485.785,-16.09,-485.861,-16.008,-485.861,-15.891C-485.861,-15.844,-485.844,-15.767,-485.809,-15.662C-485.282,-13.553,-485.018,-11.25,-485.018,-8.754C-485.018,-7.816,-485.033,-6.421,-485.062,-4.57C-485.091,-2.718,-485.105,-1.33,-485.105,-0.404C-485.105,-0.134,-484.982,0,-484.736,0C-484.361,0,-483.799,0.006,-483.049,0.018C-482.299,0.03,-481.736,0.035,-481.361,0.035C-481.139,0.035,-481.027,-0.111,-481.027,-0.404C-481.027,-0.404,-481.027,-10.951,-481.027,-10.951C-481.027,-11.49,-480.477,-12.105,-479.375,-12.797C-478.332,-13.453,-477.518,-13.781,-476.932,-13.781C-475.666,-13.781,-474.799,-13.453,-474.33,-12.797C-473.943,-12.246,-473.75,-11.303,-473.75,-9.967C-473.75,-9.498,-473.744,-8.798,-473.732,-7.866C-473.72,-6.934,-473.715,-6.235,-473.715,-5.766C-473.715,-5.18,-473.733,-4.301,-473.768,-3.129C-473.803,-1.957,-473.82,-1.084,-473.82,-0.51C-473.82,-0.17,-473.715,0,-473.504,0C-473.117,0,-472.54,0.006,-471.772,0.018C-471.005,0.03,-470.428,0.035,-470.041,0.035C-469.807,0.035,-469.689,-0.094,-469.689,-0.352C-469.689,-1.137,-469.702,-2.308,-469.725,-3.867Z" /></g><g id="i35"><path fill="#9b9b9d" fill-rule="evenodd" d="M-493.824,-4.904C-494.75,-3.791,-495.899,-3.234,-497.27,-3.234C-498.676,-3.234,-499.848,-3.779,-500.785,-4.869C-501.688,-5.912,-502.139,-7.143,-502.139,-8.561C-502.139,-9.991,-501.688,-11.232,-500.785,-12.287C-499.848,-13.388,-498.676,-13.939,-497.27,-13.939C-495.864,-13.939,-494.71,-13.383,-493.807,-12.27C-492.952,-11.239,-492.523,-10.002,-492.523,-8.561C-492.523,-7.166,-492.957,-5.947,-493.824,-4.904ZM-489.482,-16.471C-490.349,-16.647,-490.942,-16.734,-491.258,-16.734C-491.457,-16.734,-491.621,-16.365,-491.75,-15.627C-491.879,-14.889,-491.979,-14.52,-492.049,-14.52C-492.084,-14.52,-492.119,-14.537,-492.154,-14.572C-492.576,-15.017,-492.887,-15.357,-493.086,-15.592C-494.422,-16.834,-495.986,-17.455,-497.779,-17.455C-500.322,-17.455,-502.374,-16.57,-503.932,-14.801C-505.42,-13.102,-506.164,-10.952,-506.164,-8.35C-506.164,-6.041,-505.426,-4.019,-503.949,-2.285C-502.391,-0.468,-500.475,0.439,-498.201,0.439C-497.275,0.439,-496.35,0.205,-495.424,-0.264C-494.826,-0.557,-494.182,-0.985,-493.49,-1.547C-492.928,-2.004,-492.611,-2.232,-492.541,-2.232C-492.436,-2.232,-492.324,-1.822,-492.207,-1.002C-492.09,-0.182,-491.92,0.229,-491.697,0.229C-491.381,0.229,-490.897,0.19,-490.247,0.114C-489.597,0.038,-489.11,0,-488.788,0C-488.466,0,-488.31,-0.17,-488.322,-0.51C-488.322,-0.51,-488.34,-0.756,-488.34,-0.756C-488.633,-5.9,-488.779,-8.531,-488.779,-8.648C-488.779,-10.593,-488.551,-12.908,-488.094,-15.592C-488.059,-15.756,-488.041,-15.861,-488.041,-15.908C-488.041,-16.072,-488.521,-16.26,-489.482,-16.471Z" /></g><g id="i40"><path fill="#9b9b9d" d="M-507.676,-16.312C-509.036,-17.144,-510.535,-17.561,-512.176,-17.561C-514.625,-17.561,-516.67,-16.67,-518.311,-14.889C-519.905,-13.155,-520.701,-11.045,-520.701,-8.561C-520.701,-6.123,-519.887,-4.026,-518.258,-2.268C-516.594,-0.463,-514.555,0.439,-512.141,0.439C-511.59,0.439,-510.741,0.293,-509.592,0C-508.221,-0.352,-507.535,-0.709,-507.535,-1.072C-507.535,-1.412,-507.623,-2.027,-507.799,-2.918C-507.987,-3.902,-508.157,-4.395,-508.309,-4.395C-508.215,-4.395,-508.549,-4.201,-509.311,-3.814C-510.073,-3.427,-510.846,-3.234,-511.631,-3.234C-513.049,-3.234,-514.25,-3.774,-515.234,-4.852C-516.195,-5.895,-516.676,-7.131,-516.676,-8.561C-516.676,-10.014,-516.195,-11.274,-515.234,-12.34C-514.273,-13.406,-513.072,-13.939,-511.631,-13.939C-510.998,-13.939,-510.415,-13.822,-509.882,-13.588C-509.349,-13.353,-508.818,-13.119,-508.291,-12.885C-508.186,-12.885,-507.999,-13.33,-507.729,-14.221C-507.46,-15.111,-507.324,-15.685,-507.324,-15.943C-507.324,-16.048,-507.442,-16.171,-507.676,-16.312Z" /></g><g id="i22"><path fill="#9b9b9d" fill-rule="evenodd" d="M-536.258,-10.16C-538.672,-9.808,-540.746,-9.633,-542.48,-9.633C-542.902,-9.633,-543.113,-9.756,-543.113,-10.002C-543.113,-11.08,-542.694,-12.053,-541.856,-12.92C-541.018,-13.787,-540.06,-14.221,-538.982,-14.221C-538.021,-14.221,-537.158,-13.846,-536.39,-13.096C-535.623,-12.346,-535.238,-11.485,-535.238,-10.512C-535.238,-10.371,-535.578,-10.254,-536.258,-10.16ZM-533.217,-15.17C-534.694,-16.787,-536.533,-17.596,-538.736,-17.596C-541.103,-17.596,-543.101,-16.664,-544.73,-14.801C-546.277,-13.008,-547.051,-10.904,-547.051,-8.49C-547.051,-5.783,-546.242,-3.618,-544.625,-1.995C-543.008,-0.372,-540.84,0.439,-538.121,0.439C-535.426,0.439,-533.217,-0.475,-531.494,-2.303C-531.307,-2.502,-531.213,-2.637,-531.213,-2.707C-531.213,-2.766,-531.418,-3.19,-531.828,-3.981C-532.238,-4.772,-532.458,-5.179,-532.487,-5.203C-532.516,-5.226,-532.578,-5.238,-532.672,-5.238C-532.86,-5.086,-533.047,-4.933,-533.234,-4.781C-534.781,-3.586,-536.481,-2.988,-538.332,-2.988C-539.41,-2.988,-540.418,-3.333,-541.355,-4.025C-542.339,-4.751,-542.909,-5.631,-543.061,-6.662C-536.311,-7.166,-532.684,-7.511,-532.18,-7.699C-531.43,-7.992,-531.055,-8.572,-531.055,-9.439C-531.055,-11.689,-531.776,-13.6,-533.217,-15.17Z" /></g><g id="i20"><path fill="#9b9b9d" d="M-548.879,-19.811C-548.938,-21.651,-548.967,-23.033,-548.967,-23.959C-548.967,-24.299,-548.967,-24.463,-548.967,-24.451C-549.002,-24.592,-549.143,-24.662,-549.389,-24.662C-549.612,-24.662,-549.94,-24.644,-550.373,-24.609C-550.807,-24.574,-551.129,-24.557,-551.34,-24.557C-551.575,-24.557,-551.923,-24.574,-552.386,-24.609C-552.849,-24.644,-553.198,-24.662,-553.432,-24.662C-553.526,-24.662,-553.572,-24.574,-553.572,-24.398C-553.572,-23.449,-553.519,-22.019,-553.414,-20.109C-553.309,-18.199,-553.256,-16.764,-553.256,-15.803C-553.256,-15.194,-554.411,-12.527,-556.719,-7.805C-557.481,-6.246,-557.897,-5.467,-557.967,-5.467C-558.002,-5.502,-558.025,-5.543,-558.037,-5.59C-558.459,-6.551,-558.764,-7.289,-558.951,-7.805C-560.685,-12.364,-561.57,-14.935,-561.605,-15.521C-561.617,-15.779,-561.623,-16.512,-561.623,-17.719C-561.623,-18.457,-561.6,-19.567,-561.553,-21.05C-561.506,-22.532,-561.482,-23.643,-561.482,-24.381C-561.482,-24.568,-561.618,-24.662,-561.887,-24.662C-562.086,-24.662,-562.385,-24.644,-562.783,-24.609C-563.182,-24.574,-563.481,-24.557,-563.68,-24.557C-563.915,-24.557,-564.254,-24.574,-564.699,-24.609C-565.144,-24.644,-565.479,-24.662,-565.701,-24.662C-565.947,-24.662,-566.07,-24.574,-566.07,-24.398C-566.07,-23.706,-566.05,-22.673,-566.009,-21.296C-565.968,-19.919,-565.947,-18.884,-565.947,-18.193C-565.947,-16.634,-565.965,-15.709,-566,-15.416C-566.891,-12.51,-567.758,-9.914,-568.602,-7.629C-569.059,-6.399,-569.357,-5.648,-569.498,-5.379C-569.533,-5.309,-569.563,-5.268,-569.586,-5.256C-569.656,-5.256,-570.084,-6.052,-570.869,-7.646C-573.236,-12.462,-574.42,-15.17,-574.42,-15.768C-574.42,-16.717,-574.365,-18.149,-574.253,-20.065C-574.142,-21.981,-574.086,-23.414,-574.086,-24.363C-574.086,-24.539,-574.209,-24.627,-574.455,-24.627C-574.654,-24.627,-574.954,-24.615,-575.352,-24.592C-575.751,-24.568,-576.049,-24.557,-576.248,-24.557C-576.459,-24.557,-576.778,-24.574,-577.206,-24.609C-577.634,-24.644,-577.953,-24.662,-578.164,-24.662C-578.457,-24.662,-578.604,-24.557,-578.604,-24.346C-578.604,-23.385,-578.633,-21.938,-578.691,-20.004C-578.75,-18.07,-578.779,-16.623,-578.779,-15.662C-578.779,-15.31,-577.66,-12.803,-575.422,-8.139C-573.805,-4.729,-572.592,-2.174,-571.783,-0.475C-571.631,-0.159,-571.467,0,-571.291,0C-571.291,0,-568.145,0,-568.145,0C-567.923,0,-567.746,-0.159,-567.617,-0.475C-565.906,-4.74,-564.647,-7.951,-563.838,-10.107C-562.209,-5.724,-560.961,-2.514,-560.094,-0.475C-559.953,-0.159,-559.772,0,-559.549,0C-559.549,0,-556.385,0,-556.385,0C-556.221,0,-556.062,-0.159,-555.91,-0.475C-554.293,-3.873,-553.092,-6.428,-552.307,-8.139C-549.963,-13.061,-548.791,-15.568,-548.791,-15.662C-548.791,-16.588,-548.821,-17.971,-548.879,-19.811Z" /></g></g></g></svg>