<svg fill="none" height="100%" width="100%" viewBox="0 0 1300 1300" xmlns:xlink="http://www.w3.org/1999/xlink" xmlns="http://www.w3.org/2000/svg"><defs><filter id="i0"><feColorMatrix values="0 0 0 0 1 0 0 0 0 1 0 0 0 0 1 0 0 0 1 0" type="matrix" /></filter><mask height="20000" width="20000" y="-10000" x="-10000" maskContentUnits="userSpaceOnUse" maskUnits="userSpaceOnUse" style="mask-type: alpha" mask-type="alpha" id="i1"><g filter="url(#i0)" opacity="0"><animate repeatCount="indefinite" attributeName="opacity" dur="2s" begin="0s" fill="freeze" values="0; 1; 1; 1" keyTimes="0; 0.025958; 0.173307; 1" keySplines="0 0 1 1; 0 0 1 1; 0 0 1 1" calcMode="spline" /><g transform="translate(651.01,647.835)"><g transform="scale(0.2,0.2)"><animateTransform repeatCount="indefinite" type="scale" attributeName="transform" dur="2s" begin="0s" calcMode="spline" values="0.2 0.2; 0.2 0.2; 1.301 1.301; 0.95 0.95; 1.02 1.02; 0.98 0.98; 1 1; 1 1" keyTimes="0; 0.162775; 0.316667; 0.425908; 0.489067; 0.531166; 0.583789; 1" keySplines="0 0 1 1; 0.333 0 0.667 1; 0.333 0 0.833 1; 0.167 0 0.833 1; 0.167 0 0.833 1; 0.167 0 0.833 1; 0 0 1 1" fill="freeze" /><g transform="translate(-346.917,-346.917)"><g id="i2" transform="matrix(1,0,0,1,346.916,346.917)"><path fill="#2ecc71" d="M346.667,0C346.667,191.458,191.459,346.667,0,346.667C-191.458,346.667,-346.667,191.458,-346.667,0C-346.667,-191.459,-191.458,-346.666,0,-346.666C191.459,-346.666,346.667,-191.459,346.667,0Z" /></g></g></g></g></g></mask></defs><g opacity="0" visibility="hidden" id="i3"><animate repeatCount="indefinite" begin="0s" calcMode="discrete" dur="2s" values="hidden; visible; visible" keyTimes="0; 0.125; 1" attributeName="visibility" /><animate repeatCount="indefinite" attributeName="opacity" dur="2s" begin="0s" fill="freeze" values="0; 0; 1; 1; 0; 0" keyTimes="0; 0.089942; 0.107258; 0.2285; 0.466667; 1" keySplines="0 0 1 1; 0 0 1 1; 0 0 1 1; 0 0 1 1; 0 0 1 1" calcMode="spline" /><g transform="translate(650,650)"><animateTransform repeatCount="indefinite" type="translate" attributeName="transform" dur="2s" begin="0s" calcMode="spline" values="650 650; 650 650; 717.199 194.507; 717.199 194.507" keyTimes="0; 0.13325; 0.380062; 1" keySplines="0 0 1 1; 0.252 0 0.33 1; 0 0 1 1" fill="freeze" /><g transform="scale(1,1) translate(-30.771,-30.771)"><g id="i2" transform="matrix(1,0,0,1,30.771,30.772)"><path fill="#41af80" d="M30.522,-0.001C30.522,16.856,16.856,30.522,0,30.522C-16.857,30.522,-30.522,16.856,-30.522,-0.001C-30.522,-16.857,-16.857,-30.522,0,-30.522C16.856,-30.522,30.522,-16.857,30.522,-0.001Z" /></g></g></g></g><g opacity="0" visibility="hidden" id="i4"><animate repeatCount="indefinite" begin="0s" calcMode="discrete" dur="2s" values="hidden; visible; visible" keyTimes="0; 0.125; 1" attributeName="visibility" /><animate repeatCount="indefinite" attributeName="opacity" dur="2s" begin="0s" fill="freeze" values="0; 0; 1; 1; 0; 0" keyTimes="0; 0.089942; 0.107258; 0.2285; 0.466667; 1" keySplines="0 0 1 1; 0.167 0 0.833 1; 0.167 0 0.833 1; 0.72 0 0.833 0.601; 0 0 1 1" calcMode="spline" /><g transform="translate(650,650)"><animateMotion repeatCount="indefinite" dur="2s" begin="0s" calcMode="spline" keyTimes="0; 0.13325; 0.397396; 1" keySplines="0 0 1 1; 0.292 0 0.33 1; 0 0 1 1" keyPoints="0; 0; 1; 1" path="M0 0 C-95.667 -127 -167.695 -317.543 -171.362 -412.543" fill="freeze" /><g transform="scale(1,1) translate(-33.515,-41.664)"><g id="i2" transform="matrix(1,0,0,1,33.515,41.664)"><path fill="#4683f5" d="M28.859,29.054C28.859,29.054,10.733,39.519,10.733,39.519C7.451,41.414,3.255,40.289,1.36,37.008C1.36,37.008,-31.37,-19.683,-31.37,-19.683C-33.265,-22.964,-32.14,-27.16,-28.859,-29.054C-28.859,-29.054,-10.732,-39.52,-10.732,-39.52C-7.451,-41.414,-3.255,-40.29,-1.36,-37.009C-1.36,-37.009,31.37,19.682,31.37,19.682C33.265,22.964,32.14,27.159,28.859,29.054Z" /></g></g></g></g><g opacity="0" visibility="hidden" id="i5"><animate repeatCount="indefinite" begin="0s" calcMode="discrete" dur="2s" values="hidden; visible; visible" keyTimes="0; 0.125; 1" attributeName="visibility" /><animate repeatCount="indefinite" attributeName="opacity" dur="2s" begin="0s" fill="freeze" values="0; 0; 1; 1; 0; 0" keyTimes="0; 0.089942; 0.107258; 0.2285; 0.466667; 1" keySplines="0 0 1 1; 0.167 0 0.833 1; 0.167 0 0.833 1; 0.72 0 0.833 0.601; 0 0 1 1" calcMode="spline" /><g transform="translate(649.693,649.692)"><animateMotion repeatCount="indefinite" dur="2s" begin="0s" calcMode="spline" keyTimes="0; 0.13325; 0.354069; 1" keySplines="0 0 1 1; 0.174 0 0.33 1; 0 0 1 1" keyPoints="0; 0; 1; 1" path="M0 0 C-113.667 -146 -310.555 -201.121 -430.222 -223.621" fill="freeze" /><g transform="scale(1,1) translate(-47.326,-47.325)"><g id="i2" transform="matrix(1,0,0,1,47.325,47.325)"><path fill="#4683f5" d="M-17.558,-36.37C-17.558,-36.37,-13.481,-34.987,-13.481,-34.987C-8.858,-33.419,-3.759,-34.227,0.154,-37.147C0.154,-37.147,3.605,-39.722,3.605,-39.722C13.458,-47.075,27.467,-39.938,27.31,-27.644C27.31,-27.644,27.255,-23.339,27.255,-23.339C27.192,-18.457,29.535,-13.857,33.521,-11.038C33.521,-11.038,37.037,-8.552,37.037,-8.552C47.075,-1.453,44.615,14.074,32.875,17.724C32.875,17.724,28.763,19.002,28.763,19.002C24.101,20.451,20.452,24.102,19.003,28.764C19.003,28.764,17.724,32.876,17.724,32.876C14.075,44.616,-1.453,47.075,-8.552,37.037C-8.552,37.037,-11.039,33.522,-11.039,33.522C-13.858,29.536,-18.458,27.192,-23.339,27.255C-23.339,27.255,-27.645,27.309,-27.645,27.309C-39.938,27.466,-47.075,13.459,-39.722,3.605C-39.722,3.605,-37.146,0.154,-37.146,0.154C-34.226,-3.758,-33.419,-8.857,-34.987,-13.481C-34.987,-13.481,-36.37,-17.558,-36.37,-17.558C-40.318,-29.202,-29.202,-40.318,-17.558,-36.37Z" /></g></g></g></g><g opacity="0" visibility="hidden" id="i6"><animate repeatCount="indefinite" begin="0s" calcMode="discrete" dur="2s" values="hidden; visible; visible" keyTimes="0; 0.125; 1" attributeName="visibility" /><animate repeatCount="indefinite" attributeName="opacity" dur="2s" begin="0s" fill="freeze" values="0; 0; 1; 1; 0; 0" keyTimes="0; 0.089942; 0.107258; 0.2285; 0.466667; 1" keySplines="0 0 1 1; 0.167 0 0.833 1; 0.167 0 0.833 1; 0.72 0 0.833 0.601; 0 0 1 1" calcMode="spline" /><g transform="translate(650,650)"><animateTransform repeatCount="indefinite" type="translate" attributeName="transform" dur="2s" begin="0s" calcMode="spline" values="650 650; 650 650; 136.624 624.727; 136.624 624.727" keyTimes="0; 0.13325; 0.388705; 1" keySplines="0 0 1 1; 0.273 0 0.33 1; 0 0 1 1" fill="freeze" /><g transform="scale(1,1) translate(-42,-25.144)"><g id="i2" transform="matrix(1,0,0,1,42,25.144)"><path fill="#50d05c" d="M36.343,-18.872C36.343,-18.872,40.921,1.552,40.921,1.552C41.75,5.249,39.425,8.919,35.727,9.747C35.727,9.747,-28.148,24.066,-28.148,24.066C-31.845,24.894,-35.514,22.569,-36.344,18.872C-36.344,18.872,-40.922,-1.553,-40.922,-1.553C-41.75,-5.25,-39.425,-8.919,-35.728,-9.747C-35.728,-9.747,28.148,-24.066,28.148,-24.066C31.845,-24.894,35.514,-22.569,36.343,-18.872Z" /></g></g></g></g><g opacity="0" visibility="hidden" id="i7"><animate repeatCount="indefinite" begin="0s" calcMode="discrete" dur="2s" values="hidden; visible; visible" keyTimes="0; 0.125; 1" attributeName="visibility" /><animate repeatCount="indefinite" attributeName="opacity" dur="2s" begin="0s" fill="freeze" values="0; 0; 1; 1; 0; 0" keyTimes="0; 0.089942; 0.107258; 0.2285; 0.466667; 1" keySplines="0 0 1 1; 0.167 0 0.833 1; 0.167 0 0.833 1; 0.72 0 0.833 0.601; 0 0 1 1" calcMode="spline" /><g transform="translate(650,650)"><animateMotion repeatCount="indefinite" dur="2s" begin="0s" calcMode="spline" keyTimes="0; 0.13325; 0.39305; 1" keySplines="0 0 1 1; 0.283 0 0.33 1; 0 0 1 1" keyPoints="0; 0; 1; 1" path="M0 0 C-178.333 3 -318.37 67.159 -442.703 217.159" fill="freeze" /><g transform="scale(1,1) translate(-30.771,-30.771)"><g id="i2" transform="matrix(1,0,0,1,30.771,30.771)"><path fill="#f82681" d="M30.521,0C30.521,16.856,16.856,30.521,0,30.521C-16.857,30.521,-30.521,16.856,-30.521,0C-30.521,-16.856,-16.857,-30.521,0,-30.521C16.856,-30.521,30.521,-16.856,30.521,0Z" /></g></g></g></g><g opacity="0" visibility="hidden" id="i8"><animate repeatCount="indefinite" begin="0s" calcMode="discrete" dur="2s" values="hidden; visible; visible" keyTimes="0; 0.125; 1" attributeName="visibility" /><animate repeatCount="indefinite" attributeName="opacity" dur="2s" begin="0s" fill="freeze" values="0; 0; 1; 1; 0; 0" keyTimes="0; 0.089942; 0.107258; 0.2285; 0.466667; 1" keySplines="0 0 1 1; 0.167 0 0.833 1; 0.167 0 0.833 1; 0.72 0 0.833 0.601; 0 0 1 1" calcMode="spline" /><g transform="translate(649.693,649.693)"><animateTransform repeatCount="indefinite" type="translate" attributeName="transform" dur="2s" begin="0s" calcMode="spline" values="649.693 649.693; 649.693 649.693; 219.471 1053.811; 219.471 1053.811" keyTimes="0; 0.13325; 0.276123; 1" keySplines="0 0 1 1; 0.189 0 0.33 1; 0 0 1 1" fill="freeze" /><g transform="scale(1,1) translate(-47.326,-47.325)"><g id="i2" transform="matrix(1,0,0,1,47.325,47.325)"><path fill="#ffbc32" d="M-17.558,-36.37C-17.558,-36.37,-13.481,-34.987,-13.481,-34.987C-8.858,-33.42,-3.759,-34.227,0.154,-37.147C0.154,-37.147,3.605,-39.723,3.605,-39.723C13.458,-47.075,27.467,-39.938,27.31,-27.644C27.31,-27.644,27.255,-23.339,27.255,-23.339C27.192,-18.457,29.535,-13.857,33.521,-11.038C33.521,-11.038,37.037,-8.553,37.037,-8.553C47.075,-1.453,44.615,14.074,32.875,17.724C32.875,17.724,28.763,19.002,28.763,19.002C24.101,20.451,20.452,24.102,19.003,28.764C19.003,28.764,17.724,32.875,17.724,32.875C14.075,44.616,-1.453,47.075,-8.552,37.037C-8.552,37.037,-11.039,33.522,-11.039,33.522C-13.858,29.535,-18.458,27.192,-23.339,27.254C-23.339,27.254,-27.645,27.31,-27.645,27.31C-39.938,27.467,-47.075,13.459,-39.722,3.606C-39.722,3.606,-37.146,0.154,-37.146,0.154C-34.226,-3.759,-33.419,-8.857,-34.987,-13.481C-34.987,-13.481,-36.37,-17.558,-36.37,-17.558C-40.318,-29.202,-29.202,-40.318,-17.558,-36.37Z" /></g></g></g></g><g opacity="0" visibility="hidden" id="i9"><animate repeatCount="indefinite" begin="0s" calcMode="discrete" dur="2s" values="hidden; visible; visible" keyTimes="0; 0.125; 1" attributeName="visibility" /><animate repeatCount="indefinite" attributeName="opacity" dur="2s" begin="0s" fill="freeze" values="0; 0; 1; 1; 0; 0" keyTimes="0; 0.089942; 0.107258; 0.2285; 0.466667; 1" keySplines="0 0 1 1; 0.167 0 0.833 1; 0.167 0 0.833 1; 0.72 0 0.833 0.601; 0 0 1 1" calcMode="spline" /><g transform="translate(648.09,648.244)"><animateTransform repeatCount="indefinite" type="translate" attributeName="transform" dur="2s" begin="0s" calcMode="spline" values="648.09 648.244; 648.09 648.244; 1006.148 335.839; 1006.148 335.839" keyTimes="0; 0.13325; 0.289127; 1" keySplines="0 0 1 1; 0.229 0 0.33 1; 0 0 1 1" fill="freeze" /><g transform="scale(1,1) translate(-77.856,-74.774)"><g id="i2" transform="matrix(1,0,0,1,77.856,74.774)"><path stroke-linejoin="round" stroke-linecap="round" stroke-width="20" stroke="#f82681" d="M-18.607,24.774C-27.856,12.719,-24.993,-5.238,-12.262,-15.006C0.468,-24.774,18.556,-22.893,27.805,-10.838C27.823,-10.815,27.839,-10.792,27.857,-10.77" /></g></g></g></g><g opacity="0" visibility="hidden" id="i10"><animate repeatCount="indefinite" begin="0s" calcMode="discrete" dur="2s" values="hidden; visible; visible" keyTimes="0; 0.125; 1" attributeName="visibility" /><animate repeatCount="indefinite" attributeName="opacity" dur="2s" begin="0s" fill="freeze" values="0; 0; 1; 1; 0; 0" keyTimes="0; 0.089942; 0.107258; 0.2285; 0.466667; 1" keySplines="0 0 1 1; 0.167 0 0.833 1; 0.167 0 0.833 1; 0.72 0 0.833 0.601; 0 0 1 1" calcMode="spline" /><g transform="translate(649.692,649.692)"><animateTransform repeatCount="indefinite" type="translate" attributeName="transform" dur="2s" begin="0s" calcMode="spline" values="649.692 649.692; 649.692 649.692; 1087.413 563.271; 1087.413 563.271" keyTimes="0; 0.13325; 0.384391; 1" keySplines="0 0 1 1; 0.263 0 0.33 1; 0 0 1 1" fill="freeze" /><g transform="scale(1,1) translate(-47.326,-47.325)"><g id="i2" transform="matrix(1,0,0,1,47.325,47.325)"><path fill="#ffbc32" d="M-17.558,-36.37C-17.558,-36.37,-13.481,-34.987,-13.481,-34.987C-8.858,-33.419,-3.758,-34.227,0.154,-37.147C0.154,-37.147,3.606,-39.722,3.606,-39.722C13.46,-47.075,27.467,-39.938,27.31,-27.644C27.31,-27.644,27.255,-23.339,27.255,-23.339C27.193,-18.457,29.537,-13.857,33.522,-11.038C33.522,-11.038,37.038,-8.552,37.038,-8.552C47.076,-1.453,44.617,14.074,32.877,17.724C32.877,17.724,28.763,19.002,28.763,19.002C24.101,20.451,20.452,24.102,19.003,28.764C19.003,28.764,17.724,32.876,17.724,32.876C14.075,44.616,-1.453,47.075,-8.551,37.037C-8.551,37.037,-11.037,33.522,-11.037,33.522C-13.857,29.536,-18.456,27.192,-23.338,27.255C-23.338,27.255,-27.644,27.31,-27.644,27.31C-39.937,27.466,-47.075,13.459,-39.721,3.606C-39.721,3.606,-37.146,0.155,-37.146,0.155C-34.226,-3.758,-33.418,-8.857,-34.987,-13.481C-34.987,-13.481,-36.37,-17.558,-36.37,-17.558C-40.318,-29.202,-29.202,-40.318,-17.558,-36.37Z" /></g></g></g></g><g opacity="0" visibility="hidden" id="i11"><animate repeatCount="indefinite" begin="0s" calcMode="discrete" dur="2s" values="hidden; visible; visible" keyTimes="0; 0.125; 1" attributeName="visibility" /><animate repeatCount="indefinite" attributeName="opacity" dur="2s" begin="0s" fill="freeze" values="0; 0; 1; 1; 0; 0" keyTimes="0; 0.089942; 0.107258; 0.2285; 0.466667; 1" keySplines="0 0 1 1; 0.167 0 0.833 1; 0.167 0 0.833 1; 0.72 0 0.833 0.601; 0 0 1 1" calcMode="spline" /><g transform="translate(651.262,651.213)"><animateTransform repeatCount="indefinite" type="translate" attributeName="transform" dur="2s" begin="0s" calcMode="spline" values="651.262 651.213; 651.262 651.213; 1110.768 929.936; 1110.768 929.936" keyTimes="0; 0.13325; 0.276123; 1" keySplines="0 0 1 1; 0.189 0 0.33 1; 0 0 1 1" fill="freeze" /><g transform="scale(1,1) translate(-60.548,-78.82)"><g id="i2" transform="matrix(1,0,0,1,60.548,78.82)"><path stroke-linejoin="round" stroke-linecap="round" stroke-width="15" stroke="#f82681" d="M-12.409,-41.32C8.345,-38.587,23.048,-18.302,20.162,3.615C17.276,25.533,-2.177,41.32,-22.93,38.586C-22.97,38.581,-23.009,38.576,-23.048,38.571" /></g></g></g></g><g opacity="0" visibility="hidden" id="i12"><animate repeatCount="indefinite" begin="0s" calcMode="discrete" dur="2s" values="hidden; visible; visible" keyTimes="0; 0.125; 1" attributeName="visibility" /><animate repeatCount="indefinite" attributeName="opacity" dur="2s" begin="0s" fill="freeze" values="0; 0; 1; 1; 0; 0" keyTimes="0; 0.089942; 0.107258; 0.2285; 0.466667; 1" keySplines="0 0 1 1; 0.167 0 0.833 1; 0.167 0 0.833 1; 0.72 0 0.833 0.601; 0 0 1 1" calcMode="spline" /><g transform="translate(650,650)"><animateTransform repeatCount="indefinite" type="translate" attributeName="transform" dur="2s" begin="0s" calcMode="spline" values="650 650; 650 650; 1004.113 1117.051; 1004.113 1117.051" keyTimes="0; 0.13325; 0.289127; 1" keySplines="0 0 1 1; 0.229 0 0.33 1; 0 0 1 1" fill="freeze" /><g transform="scale(1,1) translate(-33.514,-41.664)"><g id="i2" transform="matrix(1,0,0,1,33.514,41.664)"><path fill="#4683f5" d="M28.859,29.055C28.859,29.055,10.732,39.52,10.732,39.52C7.451,41.414,3.255,40.29,1.361,37.009C1.361,37.009,-31.37,-19.681,-31.37,-19.681C-33.264,-22.964,-32.14,-27.159,-28.859,-29.053C-28.859,-29.053,-10.732,-39.519,-10.732,-39.519C-7.451,-41.414,-3.255,-40.29,-1.361,-37.008C-1.361,-37.008,31.37,19.683,31.37,19.683C33.264,22.964,32.14,27.16,28.859,29.055Z" /></g></g></g></g><g opacity="0" visibility="hidden" id="i13"><animate repeatCount="indefinite" begin="0s" calcMode="discrete" dur="2s" values="hidden; visible; visible" keyTimes="0; 0.125; 1" attributeName="visibility" /><animate repeatCount="indefinite" attributeName="opacity" dur="2s" begin="0s" fill="freeze" values="0; 0; 1; 1; 0; 0" keyTimes="0; 0.089942; 0.107258; 0.2285; 0.466667; 1" keySplines="0 0 1 1; 0.167 0 0.833 1; 0.167 0 0.833 1; 0.72 0 0.833 0.601; 0 0 1 1" calcMode="spline" /><g transform="translate(647.368,647.581)"><animateTransform repeatCount="indefinite" type="translate" attributeName="transform" dur="2s" begin="0s" calcMode="spline" values="647.368 647.581; 647.368 647.581; 464.545 1145.048; 464.545 1145.048" keyTimes="0; 0.13325; 0.271794; 1" keySplines="0 0 1 1; 0.174 0 0.33 1; 0 0 1 1" fill="freeze" /><g transform="scale(1,1) translate(-88.379,-84.132)"><g id="i2" transform="matrix(1,0,0,1,88.378,84.131)"><path stroke-linejoin="round" stroke-linecap="round" stroke-width="20" stroke="#41af80" d="M-25.635,34.132C-38.378,17.524,-34.433,-7.216,-16.894,-20.673C0.645,-34.131,25.563,-31.538,38.306,-14.931C38.306,-14.931,38.379,-14.837,38.379,-14.837" /></g></g></g></g><g id="i14"><g transform="translate(650,650)"><g transform="scale(0.2,0.2)"><animateTransform repeatCount="indefinite" type="scale" attributeName="transform" dur="2s" begin="0s" calcMode="spline" values="0.2 0.2; 0.2 0.2; 1.1 1.1; 0.95 0.95; 1.02 1.02; 0.98 0.98; 1 1; 1 1" keyTimes="0; 0.162775; 0.325; 0.425908; 0.489067; 0.531166; 0.583789; 1" keySplines="0 0 1 1; 0.333 0 0.667 1; 0.333 0 0.833 1; 0.167 0 0.833 1; 0.167 0 0.833 1; 0.167 0 0.833 1; 0 0 1 1" fill="freeze" /><g transform="translate(-346.917,-346.917)"><g opacity="0" id="i15"><animate repeatCount="indefinite" attributeName="opacity" dur="2s" begin="0s" fill="freeze" values="0; 0.2; 0.2; 0.2" keyTimes="0; 0.025958; 0.173307; 1" keySplines="0 0 1 1; 0 0 1 1; 0 0 1 1" calcMode="spline" /><g transform="translate(346.917,346.917)"><g transform="scale(1,1)"><animateTransform repeatCount="indefinite" type="scale" attributeName="transform" dur="2s" begin="0s" calcMode="spline" values="1 1; 1.681 1.681; 0.88 0.88; 0.88 0.88" keyTimes="0; 0.316666; 0.583789; 1" keySplines="0.67 0 0.33 1; 0.67 0 0.33 1; 0 0 1 1" fill="freeze" /><g transform="translate(-346.917,-346.917)"><g id="i2" transform="matrix(1,0,0,1,346.916,346.917)"><path fill="#2ecc71" d="M346.667,0C346.667,191.458,191.459,346.667,0,346.667C-191.458,346.667,-346.667,191.458,-346.667,0C-346.667,-191.459,-191.458,-346.666,0,-346.666C191.459,-346.666,346.667,-191.459,346.667,0Z" /></g></g></g></g></g></g></g></g></g><g opacity="0" id="i14"><animate repeatCount="indefinite" attributeName="opacity" dur="2s" begin="0s" fill="freeze" values="0; 1; 1; 1" keyTimes="0; 0.066667; 0.173307; 1" keySplines="0 0 1 1; 0 0 1 1; 0 0 1 1" calcMode="spline" /><g transform="translate(650,650)"><g transform="scale(0.2,0.2)"><animateTransform repeatCount="indefinite" type="scale" attributeName="transform" dur="2s" begin="0s" calcMode="spline" values="0.2 0.2; 0.2 0.2; 1.1 1.1; 0.95 0.95; 1.02 1.02; 0.98 0.98; 1 1; 1 1" keyTimes="0; 0.162775; 0.325; 0.425908; 0.489067; 0.531166; 0.583789; 1" keySplines="0 0 1 1; 0.333 0 0.667 1; 0.333 0 0.833 1; 0.167 0 0.833 1; 0.167 0 0.833 1; 0.167 0 0.833 1; 0 0 1 1" fill="freeze" /><g transform="translate(-346.917,-346.917)"><g id="i2" transform="matrix(1,0,0,1,346.916,346.917)"><path fill="#2ecc71" d="M346.667,0C346.667,191.458,191.459,346.667,0,346.667C-191.458,346.667,-346.667,191.458,-346.667,0C-346.667,-191.459,-191.458,-346.666,0,-346.666C191.459,-346.666,346.667,-191.459,346.667,0Z" /></g></g></g></g></g><g mask="url(#i1)" opacity="0" id="i16"><animate repeatCount="indefinite" attributeName="opacity" dur="2s" begin="0s" fill="freeze" values="0; 1; 1; 0; 0" keyTimes="0; 0.025958; 0.583792; 0.741667; 1" keySplines="0.167 0 0.833 1; 0.167 0 0.833 1; 0.72 0 0.833 0.643; 0 0 1 1" calcMode="spline" /><g transform="translate(-254,130)"><animateTransform repeatCount="indefinite" type="translate" attributeName="transform" dur="2s" begin="0s" calcMode="spline" values="-254 130; -254 130; 1106 918; 1106 918" keyTimes="0; 0.499592; 0.741667; 1" keySplines="0 0 1 1; 0.72 0 0.833 0.788; 0 0 1 1" fill="freeze" /><g transform="scale(1.201,1.201) translate(0,0)"><g id="i17"><path fill="#98fac1" fill-opacity="0.3" d="M211.999,-440C211.999,-440,-131.345,281.947,-480,280C-488.868,279.951,-136,648,-136,648C-136,648,519.646,568.072,483.999,-312C480.18,-406.283,211.999,-440,211.999,-440Z" /></g></g></g></g><g display="none" opacity="0" id="i18"><animate repeatCount="indefinite" attributeName="opacity" dur="2s" begin="0s" fill="freeze" values="0; 1; 1; 1" keyTimes="0; 0.025958; 0.173307; 1" keySplines="0 0 1 1; 0 0 1 1; 0 0 1 1" calcMode="spline" /><g transform="translate(651.01,647.835)"><g transform="scale(0.2,0.2)"><animateTransform repeatCount="indefinite" type="scale" attributeName="transform" dur="2s" begin="0s" calcMode="spline" values="0.2 0.2; 0.2 0.2; 1.301 1.301; 0.95 0.95; 1.02 1.02; 0.98 0.98; 1 1; 1 1" keyTimes="0; 0.162775; 0.316667; 0.425908; 0.489067; 0.531166; 0.583789; 1" keySplines="0 0 1 1; 0.333 0 0.667 1; 0.333 0 0.833 1; 0.167 0 0.833 1; 0.167 0 0.833 1; 0.167 0 0.833 1; 0 0 1 1" fill="freeze" /><g transform="translate(-346.917,-346.917)"><g id="i2" transform="matrix(1,0,0,1,346.916,346.917)"><path fill="#2ecc71" d="M346.667,0C346.667,191.458,191.459,346.667,0,346.667C-191.458,346.667,-346.667,191.458,-346.667,0C-346.667,-191.459,-191.458,-346.666,0,-346.666C191.459,-346.666,346.667,-191.459,346.667,0Z" /></g></g></g></g></g><g id="i14"><g transform="translate(650,650)"><g transform="scale(0.2,0.2)"><animateTransform repeatCount="indefinite" type="scale" attributeName="transform" dur="2s" begin="0s" calcMode="spline" values="0.2 0.2; 0.2 0.2; 1.1 1.1; 0.95 0.95; 1.02 1.02; 0.98 0.98; 1 1; 1 1" keyTimes="0; 0.162775; 0.325; 0.425908; 0.489067; 0.531166; 0.583789; 1" keySplines="0 0 1 1; 0.333 0 0.667 1; 0.333 0 0.833 1; 0.167 0 0.833 1; 0.167 0 0.833 1; 0.167 0 0.833 1; 0 0 1 1" fill="freeze" /><g transform="translate(-346.917,-346.917)"><g opacity="0" id="i19"><animate repeatCount="indefinite" attributeName="opacity" dur="2s" begin="0s" fill="freeze" values="0; 1; 1; 1" keyTimes="0; 0.025958; 0.173307; 1" keySplines="0 0 1 1; 0 0 1 1; 0 0 1 1" calcMode="spline" /><g transform="translate(346.916,346.917)"><g transform="rotate(-165)"><animateTransform repeatCount="indefinite" type="rotate" attributeName="transform" dur="2s" begin="0s" calcMode="spline" values="-165; -165; 0; 0" keyTimes="0; 0.1; 0.325; 1" keySplines="0 0 1 1; 0.333 0 0.667 1; 0 0 1 1" fill="freeze" /><g transform="scale(0.2,0.2)"><animateTransform repeatCount="indefinite" type="scale" attributeName="transform" dur="2s" begin="0s" calcMode="spline" values="0.2 0.2; 0.2 0.2; 1.201 1.201; 1.201 1.201" keyTimes="0; 0.162775; 0.316666; 1" keySplines="0 0 1 1; 0.333 0 0.667 1; 0 0 1 1" fill="freeze" /><g transform="translate(-278.033,-227.218)"><g id="i2" transform="matrix(1,0,0,1,278.033,227.218)"><path stroke-linejoin="round" stroke-linecap="round" stroke-width="55" stroke="#ffffff" d="M-153.033,0.588"><set fill="freeze" dur="0.017s" begin="0.3360666666666667s" to="M-153.033,0.588" attributeName="d" /><set fill="freeze" dur="0.017s" begin="0.35273333333333334s" to="M-153.033,0.588C-153.033,0.588,-152.783,0.838,-152.309,1.312" attributeName="d" /><set fill="freeze" dur="0.017s" begin="0.3694s" to="M-153.033,0.588C-153.033,0.588,-151.916,1.705,-149.918,3.703" attributeName="d" /><set fill="freeze" dur="0.017s" begin="0.38606666666666667s" to="M-153.033,0.588C-153.033,0.588,-150.182,3.439,-145.434,8.187" attributeName="d" /><set fill="freeze" dur="0.017s" begin="0.40273333333333333s" to="M-153.033,0.588C-153.033,0.588,-147.164,6.457,-138.248,15.373" attributeName="d" /><set fill="freeze" dur="0.017s" begin="0.41940000000000005s" to="M-153.033,0.588C-153.033,0.588,-142.116,11.505,-127.439,26.182" attributeName="d" /><set fill="freeze" dur="0.017s" begin="0.4360666666666667s" to="M-153.033,0.588C-153.033,0.588,-133.503,20.118,-111.566,42.056" attributeName="d" /><set fill="freeze" dur="0.017s" begin="0.4527333333333334s" to="M-153.033,0.588C-153.033,0.588,-117.378,36.243,-88.306,65.315" attributeName="d" /><set fill="freeze" dur="0.017s" begin="0.46940000000000004s" to="M-153.033,0.588C-153.033,0.588,-70.848,82.774,-54.29,99.332" attributeName="d" /><set fill="freeze" dur="0.017s" begin="0.4860666666666667s" to="M-153.033,0.588C-153.033,0.588,-51.404,102.218,-51.404,102.218C-51.404,102.218,-33.363,84.177,-8,58.814" attributeName="d" /><set fill="freeze" dur="0.017s" begin="0.5027333333333334s" to="M-153.033,0.588C-153.033,0.588,-51.404,102.218,-51.404,102.218C-51.404,102.218,-6.751,57.565,40.818,9.996" attributeName="d" /><set fill="freeze" dur="0.017s" begin="0.5194s" to="M-153.033,0.588C-153.033,0.588,-51.404,102.218,-51.404,102.218C-51.404,102.218,20.382,30.432,78.878,-28.064" attributeName="d" /><set fill="freeze" dur="0.017s" begin="0.5360666666666667s" to="M-153.033,0.588C-153.033,0.588,-51.404,102.218,-51.404,102.218C-51.403,102.217,44.722,6.092,105.145,-54.331" attributeName="d" /><set fill="freeze" dur="0.017s" begin="0.5527333333333334s" to="M-153.033,0.588C-153.033,0.588,-51.404,102.218,-51.404,102.218C-51.403,102.217,66.253,-15.439,123.051,-72.237" attributeName="d" /><set fill="freeze" dur="0.017s" begin="0.5694s" to="M-153.033,0.588C-153.033,0.588,-51.404,102.218,-51.404,102.218C-51.403,102.217,85.557,-34.743,135.273,-84.459" attributeName="d" /><set fill="freeze" dur="0.017s" begin="0.5860666666666667s" to="M-153.033,0.588C-153.033,0.588,-51.404,102.218,-51.404,102.218C-51.403,102.217,103.133,-52.319,143.487,-92.673" attributeName="d" /><set fill="freeze" dur="0.017s" begin="0.6027333333333333s" to="M-153.033,0.588C-153.033,0.588,-51.404,102.218,-51.404,102.218C-51.403,102.217,119.352,-68.538,148.749,-97.935" attributeName="d" /><set fill="freeze" dur="0.017s" begin="0.6194000000000001s" to="M-153.033,0.588C-153.033,0.588,-51.404,102.218,-51.404,102.218C-51.403,102.217,134.474,-83.66,151.749,-100.935" attributeName="d" /><set fill="freeze" dur="0.017s" begin="0.6360666666666667s" to="M-153.033,0.588C-153.033,0.588,-51.404,102.218,-51.404,102.218C-51.403,102.217,148.695,-97.881,152.963,-102.149" attributeName="d" /></path></g></g></g></g></g></g></g></g></g></g></svg>