<svg width="158" height="159" viewBox="0 0 158 159" fill="none" xmlns="http://www.w3.org/2000/svg">
<path d="M32.4269 8.22255C12.5579 22.2769 -6.87522 64.8979 24.6613 123.857C56.1979 182.815 105.102 151.279 120.639 139.851C136.175 128.423 170.453 78.1512 130.693 31.988C90.9278 -14.1697 42.4868 1.11633 32.4269 8.22255Z" fill="url(#paint0_linear_330_3293)"/>
<path d="M56.9432 152.93C39.1232 152.93 24.2841 147.562 14.2841 137.295C1.30876 123.971 -2.85469 103.514 1.90821 76.4948C6.75286 49.0508 20.453 29.0728 42.6218 17.1165C63.875 5.65608 86.1692 5.34545 94.7685 5.74327C107.711 6.34272 120.866 10.7351 131.82 18.0974C142.953 25.5851 151.051 35.6777 154.616 46.5223C160 62.8927 156.926 81.1487 145.722 99.3229C137.771 112.217 125.831 124.62 112.087 134.249C98.6214 143.682 84.2782 149.911 71.6951 151.791C66.5889 152.554 61.6625 152.93 56.9378 152.93H56.9432ZM90.6105 7.28549C71.4554 7.28549 14.8127 12.8004 3.52128 76.7782C-1.14898 103.247 2.86733 123.225 15.4558 136.156C27.7227 148.756 47.6136 153.731 71.4554 150.173C97.199 146.331 128.529 124.102 144.332 98.4619C151.962 86.086 159.673 67.1107 153.068 47.0291C146.032 25.6396 120.937 8.59338 94.6977 7.37268C93.6568 7.32364 92.2727 7.28004 90.6105 7.28004V7.28549Z" fill="#E6D8B8"/>
<g clip-path="url(#clip0_330_3293)">
<path d="M97.4673 71.105L100.301 68.2716C100.834 67.7381 101.134 67.0145 101.134 66.26C101.134 65.5054 100.834 64.7818 100.301 64.2483C99.7671 63.7148 99.0435 63.415 98.289 63.415C97.5344 63.415 96.8108 63.7148 96.2773 64.2483L93.444 67.0816C92.9131 67.6093 92.195 67.9055 91.4465 67.9055C90.6979 67.9055 89.9798 67.6093 89.449 67.0816C87.8275 65.5431 85.6775 64.6854 83.4423 64.6854C81.2071 64.6854 79.0571 65.5431 77.4356 67.0816C77.1722 67.3472 76.8589 67.558 76.5136 67.7018C76.1683 67.8457 75.798 67.9197 75.424 67.9197C75.0499 67.9197 74.6796 67.8457 74.3343 67.7018C73.9891 67.558 73.6757 67.3472 73.4123 67.0816C71.7938 65.5596 69.6557 64.7122 67.434 64.7122C65.2122 64.7122 63.0741 65.5596 61.4556 67.0816L58.6223 69.915C58.3567 70.1784 58.146 70.4917 58.0021 70.837C57.8583 71.1823 57.7842 71.5526 57.7842 71.9266C57.7842 72.3007 57.8583 72.671 58.0021 73.0163C58.146 73.3615 58.3567 73.6749 58.6223 73.9383C59.1532 74.466 59.8713 74.7622 60.6198 74.7622C61.3683 74.7622 62.0864 74.466 62.6173 73.9383L65.4506 71.105C65.714 70.8394 66.0274 70.6286 66.3727 70.4848C66.7179 70.3409 67.0883 70.2669 67.4623 70.2669C67.8363 70.2669 68.2067 70.3409 68.5519 70.4848C68.8972 70.6286 69.2106 70.8394 69.474 71.105C71.0677 72.6967 73.2281 73.5908 75.4806 73.5908C77.7331 73.5908 79.8935 72.6967 81.4873 71.105C82.0182 70.5773 82.7363 70.2811 83.4848 70.2811C84.2333 70.2811 84.9514 70.5773 85.4823 71.105C87.0749 72.6881 89.2292 73.5767 91.4748 73.5767C93.7204 73.5767 95.8747 72.6881 97.4673 71.105ZM77.4356 84.0816C77.1722 84.3472 76.8589 84.558 76.5136 84.7018C76.1683 84.8457 75.798 84.9197 75.424 84.9197C75.0499 84.9197 74.6796 84.8457 74.3343 84.7018C73.9891 84.558 73.6757 84.3472 73.4123 84.0816C71.7908 82.5431 69.6408 81.6854 67.4056 81.6854C65.1704 81.6854 63.0204 82.5431 61.399 84.0816L58.5656 86.915C58.3001 87.1784 58.0893 87.4917 57.9454 87.837C57.8016 88.1823 57.7275 88.5526 57.7275 88.9266C57.7275 89.3007 57.8016 89.671 57.9454 90.0163C58.0893 90.3615 58.3001 90.6749 58.5656 90.9383C59.0965 91.466 59.8146 91.7622 60.5631 91.7622C61.3117 91.7622 62.0298 91.466 62.5606 90.9383L65.394 88.105C65.6574 87.8394 65.9707 87.6286 66.316 87.4848C66.6613 87.3409 67.0316 87.2669 67.4056 87.2669C67.7797 87.2669 68.15 87.3409 68.4953 87.4848C68.8405 87.6286 69.1539 87.8394 69.4173 88.105C71.0111 89.6967 73.1715 90.5908 75.424 90.5908C77.6765 90.5908 79.8369 89.6967 81.4306 88.105C81.6962 87.8416 81.907 87.5282 82.0508 87.1829C82.1947 86.8377 82.2687 86.4673 82.2687 86.0933C82.2687 85.7193 82.1947 85.3489 82.0508 85.0037C81.907 84.6584 81.6962 84.345 81.4306 84.0816C80.8998 83.5539 80.1817 83.2577 79.4331 83.2577C78.6846 83.2577 77.9665 83.5539 77.4356 84.0816Z" fill="white"/>
<path d="M112.456 50.6764C112.456 49.1735 111.859 47.7322 110.796 46.6695C109.733 45.6068 108.292 45.0098 106.789 45.0098H50.1224C48.6195 45.0098 47.1781 45.6068 46.1154 46.6695C45.0527 47.7322 44.4557 49.1735 44.4557 50.6764V107.343C44.4557 108.846 45.0527 110.287 46.1154 111.35C47.1781 112.413 48.6195 113.01 50.1224 113.01H89.789C90.1619 113.012 90.5316 112.94 90.8768 112.799C91.222 112.658 91.5359 112.451 91.8007 112.188L111.634 92.3548C111.897 92.09 112.104 91.776 112.245 91.4308C112.386 91.0856 112.458 90.716 112.456 90.3431V50.6764ZM50.1224 52.0931C50.1224 51.7174 50.2716 51.357 50.5373 51.0914C50.803 50.8257 51.1633 50.6764 51.539 50.6764H105.372C105.748 50.6764 106.108 50.8257 106.374 51.0914C106.64 51.357 106.789 51.7174 106.789 52.0931V87.5098C106.789 87.8855 106.64 88.2458 106.374 88.5115C106.108 88.7772 105.748 88.9264 105.372 88.9264H94.039C92.5361 88.9264 91.0948 89.5235 90.0321 90.5862C88.9694 91.6489 88.3724 93.0902 88.3724 94.5931V105.926C88.3724 106.302 88.2231 106.662 87.9574 106.928C87.6917 107.194 87.3314 107.343 86.9557 107.343H51.539C51.1633 107.343 50.803 107.194 50.5373 106.928C50.2716 106.662 50.1224 106.302 50.1224 105.926V52.0931Z" fill="white"/>
</g>
<defs>
<linearGradient id="paint0_linear_330_3293" x1="78.6178" y1="0" x2="78.6178" y2="158.554" gradientUnits="userSpaceOnUse">
<stop stop-color="#285069"/>
<stop offset="1" stop-color="#065C9F"/>
</linearGradient>
<clipPath id="clip0_330_3293">
<rect width="68" height="68" fill="white" transform="translate(44.4557 45.0098)"/>
</clipPath>
</defs>
</svg>
