<svg width="40" height="40" viewBox="0 0 40 40" fill="none" xmlns="http://www.w3.org/2000/svg">
<rect width="40" height="40" rx="20" fill="#477C91" fill-opacity="0.35"/>
<path d="M20 10.25C18.0716 10.25 16.1866 10.8218 14.5832 11.8932C12.9798 12.9645 11.7301 14.4873 10.9922 16.2688C10.2542 18.0504 10.0611 20.0108 10.4373 21.9021C10.8136 23.7934 11.7422 25.5307 13.1057 26.8943C14.4693 28.2579 16.2066 29.1865 18.0979 29.5627C19.9892 29.9389 21.9496 29.7458 23.7312 29.0078C25.5127 28.2699 27.0355 27.0202 28.1068 25.4168C29.1782 23.8134 29.75 21.9284 29.75 20C29.7473 17.415 28.7192 14.9366 26.8913 13.1087C25.0634 11.2808 22.585 10.2527 20 10.25ZM23.9722 21.4269L25.7478 20.7931C25.8406 20.76 25.9391 20.7455 26.0375 20.7504C26.136 20.7554 26.2325 20.7796 26.3215 20.8218C26.4106 20.8641 26.4904 20.9234 26.5566 20.9965C26.6227 21.0696 26.6738 21.155 26.7069 21.2478C26.74 21.3406 26.7545 21.4391 26.7496 21.5375C26.7447 21.636 26.7204 21.7325 26.6782 21.8215C26.6359 21.9106 26.5766 21.9904 26.5035 22.0566C26.4304 22.1227 26.345 22.1738 26.2522 22.2069L24.8009 22.7244L25.2247 24.3059C25.2502 24.4011 25.2567 24.5004 25.2439 24.5981C25.231 24.6957 25.199 24.7899 25.1497 24.8753C25.1005 24.9606 25.0349 25.0353 24.9567 25.0953C24.8785 25.1553 24.7893 25.1992 24.6941 25.2247C24.6307 25.2414 24.5655 25.2499 24.5 25.25C24.3349 25.2501 24.1743 25.1956 24.0433 25.0951C23.9122 24.9945 23.818 24.8536 23.7753 24.6941L23.2531 22.7441L20.75 21.2994V24.1897L22.0306 25.4694C22.1003 25.5391 22.1556 25.6218 22.1933 25.7128C22.231 25.8039 22.2504 25.9015 22.2504 26C22.2504 26.0985 22.231 26.1961 22.1933 26.2872C22.1556 26.3782 22.1003 26.4609 22.0306 26.5306C21.9609 26.6003 21.8782 26.6556 21.7872 26.6933C21.6961 26.731 21.5986 26.7504 21.5 26.7504C21.4015 26.7504 21.3039 26.731 21.2128 26.6933C21.1218 26.6556 21.0391 26.6003 20.9694 26.5306L20 25.5603L19.0306 26.5306C18.9609 26.6003 18.8782 26.6556 18.7872 26.6933C18.6961 26.731 18.5986 26.7504 18.5 26.7504C18.4015 26.7504 18.3039 26.731 18.2128 26.6933C18.1218 26.6556 18.0391 26.6003 17.9694 26.5306C17.8997 26.4609 17.8444 26.3782 17.8067 26.2872C17.769 26.1961 17.7496 26.0985 17.7496 26C17.7496 25.9015 17.769 25.8039 17.8067 25.7128C17.8444 25.6218 17.8997 25.5391 17.9694 25.4694L19.25 24.1897V21.2994L16.7469 22.7441L16.2247 24.6941C16.182 24.8536 16.0878 24.9945 15.9567 25.0951C15.8257 25.1956 15.6652 25.2501 15.5 25.25C15.4345 25.2499 15.3693 25.2414 15.3059 25.2247C15.2108 25.1992 15.1215 25.1553 15.0433 25.0953C14.9652 25.0353 14.8995 24.9606 14.8503 24.8753C14.801 24.7899 14.769 24.6957 14.7561 24.5981C14.7433 24.5004 14.7498 24.4011 14.7753 24.3059L15.1991 22.7244L13.7478 22.2069C13.5603 22.14 13.4071 22.0014 13.3218 21.8215C13.2366 21.6417 13.2262 21.4353 13.2931 21.2478C13.36 21.0603 13.4986 20.9071 13.6785 20.8218C13.8584 20.7366 14.0647 20.7262 14.2522 20.7931L16.0278 21.4269L18.5 20L16.0278 18.5731L14.2522 19.2069C14.1711 19.2352 14.0859 19.2498 14 19.25C13.823 19.2504 13.6516 19.1881 13.5161 19.0743C13.3805 18.9604 13.2896 18.8023 13.2595 18.6279C13.2293 18.4535 13.2617 18.2741 13.3511 18.1213C13.4405 17.9685 13.581 17.8523 13.7478 17.7931L15.1991 17.2756L14.7753 15.6941C14.7498 15.5989 14.7433 15.4996 14.7562 15.402C14.7691 15.3043 14.8011 15.2101 14.8503 15.1248C14.8996 15.0395 14.9652 14.9647 15.0434 14.9047C15.1216 14.8448 15.2108 14.8008 15.3059 14.7753C15.4981 14.7238 15.7029 14.7508 15.8752 14.8503C15.9605 14.8996 16.0353 14.9652 16.0953 15.0434C16.1552 15.1216 16.1992 15.2108 16.2247 15.3059L16.7469 17.2559L19.25 18.7006V15.8103L17.9694 14.5306C17.8286 14.3899 17.7496 14.199 17.7496 14C17.7496 13.9015 17.769 13.8039 17.8067 13.7128C17.8444 13.6218 17.8997 13.5391 17.9694 13.4694C18.0391 13.3997 18.1218 13.3444 18.2128 13.3067C18.3039 13.269 18.4015 13.2496 18.5 13.2496C18.699 13.2496 18.8899 13.3286 19.0306 13.4694L20 14.4397L20.9694 13.4694C21.0391 13.3997 21.1218 13.3444 21.2128 13.3067C21.3039 13.269 21.4015 13.2496 21.5 13.2496C21.5986 13.2496 21.6961 13.269 21.7872 13.3067C21.8782 13.3444 21.9609 13.3997 22.0306 13.4694C22.1003 13.5391 22.1556 13.6218 22.1933 13.7128C22.231 13.8039 22.2504 13.9015 22.2504 14C22.2504 14.0985 22.231 14.1961 22.1933 14.2872C22.1556 14.3782 22.1003 14.4609 22.0306 14.5306L20.75 15.8103V18.7006L23.2531 17.2559L23.7753 15.3059C23.8268 15.1137 23.9525 14.9499 24.1248 14.8503C24.2971 14.7508 24.5019 14.7238 24.6941 14.7753C24.8863 14.8268 25.0501 14.9525 25.1497 15.1248C25.2492 15.2971 25.2762 15.5019 25.2247 15.6941L24.8009 17.2756L26.2522 17.7931C26.419 17.8523 26.5595 17.9685 26.6489 18.1213C26.7383 18.2741 26.7707 18.4535 26.7406 18.6279C26.7104 18.8023 26.6195 18.9604 26.4839 19.0743C26.3484 19.1881 26.177 19.2504 26 19.25C25.9141 19.2498 25.8289 19.2352 25.7478 19.2069L23.9722 18.5731L21.5 20L23.9722 21.4269Z" fill="#477C91"/>
</svg>
